<svg xmlns:xlink="http://www.w3.org/1999/xlink" xmlns="http://www.w3.org/2000/svg" version="1.1" preserveAspectRatio="none" id="Layer_1" x="0px" y="0px" viewBox="130 270 270 440">
<style type="text/css">.st0{fill:none;stroke:#000000;stroke-miterlimit:10;}
	.st1{display:none;fill:#BE1E2D;stroke:#000000;stroke-width:0.5;stroke-miterlimit:10;}
	.st2{display:none;opacity:0.8;}
	.st3{display:inline;}
	.st4{fill:#BE1E2D;}
	.st5{fill:none;stroke:#000000;stroke-width:0.5;stroke-miterlimit:10;}
	.st6{display:none;enable-background:new    ;}
	.st7{fill:#BE1E2D;stroke:#000000;stroke-width:0.5;stroke-miterlimit:10;}
	.st8{font-family:'SymbolMT';}
	.st9{font-size:19px;}
	.st10{fill:#E2B780;stroke:#000000;stroke-width:0.25;stroke-miterlimit:10;}
	.st11{fill:#754C29;stroke:#000000;stroke-width:0.25;stroke-miterlimit:10;}
	.st12{stroke:#000000;stroke-width:0.25;stroke-miterlimit:10;}
	.st13{fill:#FDB92A;stroke:#000000;stroke-miterlimit:10;}
	.st14{fill:#A97029;stroke:#000000;stroke-miterlimit:10;}
	.st15{fill:#E2B780;stroke:#000000;stroke-miterlimit:10;}
	.st16{stroke:#000000;stroke-miterlimit:10;}
	.st17{fill:#741013;}
	.st18{fill:#E2B780;stroke:#8B5E3C;stroke-width:0.25;stroke-miterlimit:10;}
	.st19{fill:#FFFFFF;stroke:#000000;stroke-miterlimit:10;}
	.st20{fill:#62BB46;}
	.st21{fill:#F1F2F2;}
	.st22{fill:#C49A6C;stroke:#8B5E3C;stroke-width:0.25;stroke-miterlimit:10;}
	.st23{fill:none;stroke:#8B5E3C;stroke-width:0.25;stroke-miterlimit:10;}</style>


<g id="Layer_1_1_">
	<path class="st10" d="M289.5,438.5c10.8,0.8,20,0.8,27,0.6c1.6,0,9.4-0.3,19.6-1.5c7.6-0.9,11.5-1.4,15-2.8   c6.8-2.8,10.7-7.7,15.2-13.2c1.2-1.5,1.3-1.7,11.8-17.8c2.5-3.8,4.7-7.7,7.3-11.4c1.4-1.9,5.2-7,8.3-13.3c0.4-0.9,1.2-2.6,1.4-4.8   c0.1-0.9,0.3-5.1-2.4-7.6c-0.4-0.3-0.8-0.7-3.9-1.9c-2.5-1-4.5-1.7-5.9-2.2c1.6-4,2.9-7.2,3.8-9.3c1.9-4.5,3.3-7.7,2-9   c-0.1-0.1-0.4-0.4-0.9-0.5c-2-0.3-4.1,3.9-6.4,8.3c-1.7,3.3-4,7.8-6.8,13.3c-1.1,1.3-2.9,3.6-4.6,6.6c-2.3,4.3-3.2,7.8-3.4,8.6   c-1.2,4.3-6.6,12.3-25,28.6c-14,0.9-27.9,1.9-41.9,2.8C296.3,420.8,292.9,429.6,289.5,438.5z" />
	<path class="st10" d="M236.2,601.5c9.3,0,18.7,0,28,0c2.3,18.8,1.4,33.4,0,43.5c-0.9,6.9-2.7,16.3-4.5,32.8   c-0.7,6.7-1.2,12.3-1.5,16c-6.1,0-12.3,0-18.4,0c-0.3-3.8-0.9-9.7-1.6-16.8c-1.7-17.1-2.7-25.4-3.3-30.9   C234,636,233.5,621.1,236.2,601.5z" />
	<path class="st11" d="M236,700.9c0.1-0.9,0.3-2.7,1.4-4.5c0.9-1.4,1.9-2.2,2.4-2.6c6.1,0,12.2,0,18.3,0c0.6,0.3,2,1.2,2.9,3   c1.4,2.7,0.9,5.4,0.8,6c-8.6,0-17.2,0-25.9,0L236,700.9L236,700.9z" />
	<path class="st10" d="M191.6,601.5c9.3,0,18.7,0,28,0c2.3,18.8,1.4,33.4,0,43.5c-0.9,6.9-2.7,16.3-4.5,32.8   c-0.7,6.7-1.2,12.3-1.6,16c-6.1,0-12.3,0-18.4,0c-0.3-3.8-0.9-9.7-1.6-16.8c-1.7-17.1-2.7-25.4-3.3-30.9   C189.4,636,188.9,621.1,191.6,601.5z" />
	<path class="st12" d="M189.9,517.3c-2.1,1.3-6.1,4.1-8.6,9.2c-2.5,5.2-2.1,10-1.9,12.5c1.1,11.4,1.6,17.1,5.3,33.6   c6.4,28.3-12,50.5-5.4,54.6c4.2,2.6,9.9-7.8,24.8-8.9c10-0.8,11.5,3.5,24.4,3.6c12.3,0,13.5-3.9,23.8-3.6   c16.7,0.4,23.4,11.3,28.1,8.2c6.7-4.5-10.7-24.3-5.8-52.7c2-11.2,7.9-26.5,5.8-38.7c-0.4-2.3-1.4-8.4-6.2-13.5   c-1.8-2-3.7-3.3-5-4.1C242.8,517.3,216.3,517.3,189.9,517.3z" />
	<path class="st10" d="M158.7,413.4c-2.2,0-3.9,1.5-6.1,3.3c-2,1.7-4.5,4.4-7.2,10.6c-0.6,1.5-1.8,4.3-5,18.6   c-1.1,4.9-1.7,7.5-2,9.7c-0.9,6.1-1,10.8-1,14.1c0,14.2,0.5,29,0.7,33.3c2.7,10.4,7.2,17.1,10.3,20.9c4.3,5.3,8.3,8.6,12.2,11.6   c4.5,3.5,8.6,6,13,7.8c1.9,0.8,4.5,1.7,7.7,2c3.1,0.3,4.6,0.5,6.2-0.3c4.9-2.3,6.9-13.1,2.6-18.5c-2.4-3-4.6-1.7-10.4-5   c-6.2-3.6-9.6-8.7-12.4-13c-2.8-4.3-5.5-8.3-6.6-14.1c-0.3-1.8,0.2-7.2,1.1-18.1c0.7-7.9,0.7-7.2,0.9-10.6c0.1-1.7,0.4-6,1-11.5   c0.3-2.5,0.5-5,1.6-8.1c0.6-1.7,1.1-3,1.6-3.7c1.5-2.9,3.1-4.1,4.1-6.7C173.3,428.9,166.4,413.2,158.7,413.4z" />
	<path class="st13" d="M183.1,405.3c30.4,0,60.7,0,91.1,0l28.2,5.7L290,439.8h-12.9c0.4,2.1,0.7,5,0.4,8.4c-0.5,4.6-2,7.9-2.2,8.5   c-2,4.6-4.2,20.5-6.6,60.5c-26.1,0-52.2,0-78.4,0c-1.8-39.4-4.4-54.1-6.9-58.9c-0.5-0.9-2.7-4.9-3-10.5c-0.2-3.4,0.4-6.2,0.9-8   c-3.8,0.2-7.7,0.3-11.5,0.5c-5-9.9-9.9-19.8-14.9-29.7C164.2,408.9,173.7,407,183.1,405.3z" />
	<path class="st14" d="M274.5,435.2c-10.1,22-41.6,21.8-46.5,21.8c-7.2,0-33.5-0.1-43.9-19.7c-7.2-13.5-2.4-28.1-1-32   c14.8,0,29.6,0,44.4,0c15.6,0,31.1,0,46.7,0C276,409.8,280.2,422.7,274.5,435.2z" />
	<path class="st13" d="M259.2,425.3c-6.8,14.8-27.9,14.6-31.2,14.6c-4.9,0-22.5-0.1-29.4-13.2c-4.8-9.1-1.6-18.9-0.7-21.5   c9.9,0,19.9,0,29.8,0c10.4,0,20.9,0,31.3,0C260.2,408.3,263,417,259.2,425.3z" />
	<path class="st14" d="M248.3,418c-4.3,9.4-17.8,9.3-19.8,9.3c-3.1,0-14.3-0.1-18.7-8.4c-3.1-5.8-1-12-0.4-13.7c6.3,0,12.6,0,19,0   c6.6,0,13.3,0,19.9,0C249,407.2,250.8,412.7,248.3,418z" />
	<path class="st15" d="M243.3,409.4c0.5,3.2-0.7,6.3-2.1,8.2c-3.3,4.3-9.2,4.2-12.3,4.2c-2.9,0-8.9-0.1-12.3-4.5   c-1.4-1.8-2.6-4.6-2.3-7.9c0.1-1.4,0.5-2.5,0.8-3.3c0.8-2.6,1.5-6.4,1.5-10.9c-0.1-5.4-1.3-9.8-2.3-12.6c9.7,0,19.4,0,29,0   c-1.2,2.7-2.8,7.4-2.7,13.4c0,4.3,0.9,7.9,1.7,10.3C242.7,407,243.1,408,243.3,409.4z" />
	<path class="st16" d="M206.8,381.3c0,0,0.1,0.1,0.2,0.2c0.1,0.1,0.3,0.1,0.4,0.2c2.4,1.1,4.8,2.3,7.2,3.4c0.8,2,1.6,4.6,1.9,7.9   c0.5,5.1-0.5,9.2-1.3,11.7c-3.5-0.1-7-0.1-10.5-0.2c0,1.8-0.5,16.5-11.2,23c-5.6,3.4-13.4,4.1-19.1,1.5   c-21.5-9.5-17.3-64.6-11.2-94c3.9-18.9,6.8-31.9,18.4-42.4c15.8-14.4,36.5-14,49.9-13.7c13.9,0.3,34.5,0.7,49.3,15.7   c2.6,2.7,10.9,11.7,15.3,45c7.2,54.8,2.1,82.9-12.8,89.9c-7.5,3.5-19.1,2.3-25.7-4.5c-7.2-7.4-5.7-18.6-5.4-20.7   c-3.3,0.1-6.6,0.3-10,0.4c-0.8-2.4-1.7-6.1-1.6-10.8c0.2-4,1.1-7.2,1.9-9.3c4.1-1.6,5.3-2.6,5.2-3.3   C247.2,377.5,206.8,380.8,206.8,381.3z" />
	<g>
		<g>
			<g>
				<ellipse class="st10" cx="229.2" cy="340" rx="43.8" ry="49.2" />
				<ellipse class="st10" cx="229.2" cy="340" rx="43.8" ry="49.2" />
			</g>
		</g>
	</g>
	<path class="st16" d="M179.5,316.6c1.2,3.1,5.5,3.8,47.7,4.3c48.2,0.5,52.1-0.4,53.2-3.2c3.5-9.1-23.1-36.7-52.9-35.7   C200,282.8,176.1,307.7,179.5,316.6z" />
	<path class="st17" d="M174.5,300c-0.9,1.3-1.8,2.8-2.7,4.5c-1.1,2.1-2,4.2-2.7,6c40.4,0.1,80.9,0.3,121.3,0.5   c-0.5-1.6-1.2-3.4-2-5.2c-0.9-2-1.8-3.7-2.6-5.3C248.6,300.3,211.6,300.1,174.5,300z" />
	<path class="st11" d="M191.2,700.9c0.1-0.9,0.3-2.7,1.4-4.5c0.9-1.4,1.9-2.2,2.5-2.6c6.1,0,12.2,0,18.4,0c0.6,0.3,2,1.2,2.9,3   c1.4,2.7,0.9,5.4,0.8,6c-8.7,0-17.3,0-26,0L191.2,700.9L191.2,700.9z" />
	<path class="st18" d="M226.6,347.9c-0.7,1.9-1.1,3.5-1.3,4.9c-0.1,0.5-0.6,4.4,0.4,4.8c0.5,0.2,1.1-0.8,2-0.6   c0.5,0.1,0.6,0.6,1.1,0.6s0.6-0.5,1.1-0.7c0.8-0.2,1.3,0.8,1.9,0.7c0.8-0.2,0.7-2.9,0.4-4.9c-0.3-2.1-0.9-3.8-1.3-4.8" />
	<path class="st19" d="M248.2,344.1c-0.9,0.4-2.2,0.9-3.7,1c-2,0.2-3.5-0.2-5.1-0.6c-1.9-0.5-2.1-0.9-2.2-1.1   c-0.1-0.6,0.7-1.4,1.6-2.2c0.9-0.8,1.8-1.3,2.4-1.6c0.6-0.3,1.5-0.7,2.7-0.8c1.9-0.1,3.4,0.5,4.1,0.8c0.6,0.3,1.7,0.9,2.7,1.9   c2.2-0.8,4-1.1,4.9-1.2c0.5,0,0.9,0.1,1.2,0.1c0.8,0.2,1,0.4,1,0.5c0.1,0.2,0.1,0.5,0,0.6s-0.3,0-0.8-0.2c0,0-0.2,0-0.9-0.1   c-0.2,0-1-0.1-2.8,0.3c-1.3,0.3-2.3,0.8-2.5,0.8C250.2,342.9,249.3,343.4,248.2,344.1z" />
	<path class="st19" d="M210.6,344.4c0.9,0.4,2.2,0.9,3.7,1c2,0.2,3.5-0.2,5.1-0.6c1.9-0.5,2.1-0.9,2.2-1.1c0.1-0.6-0.7-1.4-1.6-2.2   c-0.9-0.8-1.8-1.3-2.4-1.6c-0.6-0.3-1.5-0.7-2.7-0.8c-0.3,0-2.1-0.1-4.1,0.8c-1.2,0.6-2,1.4-2.5,2c-2.3-0.8-4.1-1.2-5-1.3   c-0.5,0-0.9,0.1-1.2,0.1c-0.8,0.2-1,0.4-1,0.5c-0.1,0.2-0.1,0.5,0,0.6s0.3,0,0.8-0.2c0,0,0.2,0,0.9-0.1c0.2,0,1-0.1,2.8,0.3   c1.3,0.3,2.3,0.8,2.5,0.8C208.6,343.2,209.6,343.7,210.6,344.4z" />
	<circle class="st20" cx="214.6" cy="342.4" r="2.6" />
	<circle cx="214.6" cy="342.4" r="1.7" />
	<circle class="st21" cx="215.4" cy="341.5" r="0.5" />
	<circle class="st20" cx="243.8" cy="342.1" r="2.6" />
	<circle cx="243.8" cy="342.1" r="1.7" />
	<circle class="st21" cx="244.5" cy="341.2" r="0.5" />
	<path class="st22" d="M219.1,368.8c0-0.2,0.2-0.2,3.4-1.3c2-0.7,2.4-0.9,3.2-0.9c1.4,0,2.4,0.5,3.1,0.9c1.3-0.7,2.4-0.8,3.1-0.8   c1.1,0.1,1.4,0.5,3.4,1c2.1,0.6,2.8,0.5,2.9,0.8c0.3,0.9-4,3.8-8.9,4.1C223.8,372.9,218.9,370,219.1,368.8z" />
	<path class="st23" d="M219.1,368.8c2.5,0.5,5.8,0.9,9.5,0.8c3.8,0,7-0.5,9.4-1.1" />
	<path class="st0" d="M235.7,338.1c2.1-1.4,6-3.5,11.4-4.3c5.1-0.7,9.3,0.1,11.6,0.8" />
	<path class="st0" d="M223.6,338.1c-2.1-1.4-6-3.5-11.4-4.3c-5.1-0.7-9.3,0.1-11.6,0.8" />
</g>
</svg>