<svg xmlns:xlink="http://www.w3.org/1999/xlink" xmlns="http://www.w3.org/2000/svg" version="1.1" x="0px" y="0px" viewBox="120 150 650 350" preserveAspectRatio="none">
<style type="text/css">.st0{fill:none;stroke:#000000;stroke-miterlimit:10;}
	.st1{fill:#B39C82;stroke:#000000;stroke-miterlimit:10;}
	.st2{font-family:'MyriadPro-Regular';}
	.st3{font-size:25px;}
	.st4{fill:#C2B59B;stroke:#C2B59B;stroke-miterlimit:10;}
	.st5{fill:#E2B780;stroke:#000000;stroke-width:0.25;stroke-miterlimit:10;}
	.st6{fill:#E6E7E8;stroke:#000000;stroke-width:0.1;stroke-miterlimit:10;}
	.st7{fill:#414042;}
	.st8{fill:none;stroke:#939598;stroke-width:0.75;stroke-miterlimit:10;}
	.st9{stroke:#000000;stroke-miterlimit:10;}
	.st10{fill:#00AEEF;stroke:#000000;stroke-width:0.25;stroke-miterlimit:10;}
	.st11{stroke:#000000;stroke-width:0.1;stroke-miterlimit:10;}
	.st12{fill:#925F3B;stroke:#000000;stroke-width:0.1;stroke-miterlimit:10;}
	.st13{fill:#A97C50;stroke:#000000;stroke-width:0.1;stroke-miterlimit:10;}
	.st14{fill:#FFFFFF;stroke:#000000;stroke-width:0.2;stroke-miterlimit:10;}
	.st15{fill:#00AEEF;stroke:#000000;stroke-width:0.01;stroke-miterlimit:10;}
	.st16{stroke:#000000;stroke-width:0.25;stroke-miterlimit:10;}
	.st17{fill:#E2B780;stroke:#000000;stroke-width:0.5;stroke-miterlimit:10;}
	.st18{fill:none;stroke:#000000;stroke-width:0.08;stroke-miterlimit:10;}
	.st19{fill:#E2B888;stroke:#000000;stroke-width:0.25;stroke-miterlimit:10;}
	.st20{fill:#010101;stroke:#010101;stroke-width:0.75;stroke-miterlimit:10;}
	.st21{fill:none;stroke:#010101;stroke-width:0.75;stroke-miterlimit:10;}
	.st22{fill:#414042;stroke:#000000;stroke-width:0.1;stroke-miterlimit:10;}
	.st23{fill:#F9A139;stroke:#000000;stroke-width:0.1;stroke-miterlimit:10;}
	.st24{fill:#51B848;stroke:#000000;stroke-width:0.01;stroke-miterlimit:10;}
	.st25{stroke:#000000;stroke-width:0.2;stroke-miterlimit:10;}
	.st26{fill:none;stroke:#000000;stroke-width:0.07;stroke-miterlimit:10;}
	.st27{fill:#764D2A;stroke:#010101;stroke-width:0.25;stroke-miterlimit:10;}</style>

<g id="Layer_4">
	<line class="st0" x1="200.1" y1="480.94" x2="258.94" y2="373.32" />
	<line class="st0" x1="271.32" y1="484.03" x2="271.32" y2="371.77" />
	<line class="st0" x1="285.26" y1="371.77" x2="337.9" y2="477.06" />
	<rect x="180.74" y="166.61" class="st1" width="177.29" height="229.94" />
	<text transform="matrix(1 0 0 1 236.4839 220.0322)"><tspan x="0" y="0" class="st2 st3">     +        </tspan><tspan x="0" y="60" class="st2 st3">     =</tspan></text>
	<path class="st4" d="M257.39,231.65c-23.74,0-47.48,0-71.23,0c12.39-17.81,24.77-35.61,37.16-53.42   C234.68,196.03,246.03,213.84,257.39,231.65z" />
	<path class="st4" d="M349.54,231.85c-23.74,0-47.48,0-71.23,0c12.39-17.81,24.77-35.61,37.16-53.42   C326.83,196.23,338.18,214.04,349.54,231.85z" />
	<path class="st4" d="M279.09,350.3c-23.74,0-47.48,0-71.23,0c12.39-17.81,24.77-35.61,37.16-53.42   C256.38,314.68,267.73,332.49,279.09,350.3z" />
	<path class="st4" d="M320.89,350.3c-23.74,0-47.48,0-71.23,0c12.39-17.81,24.77-35.61,37.16-53.42   C298.18,314.68,309.54,332.49,320.89,350.3z" />
</g>
<g id="Layer_1">
	<path class="st5" d="M640.78,405.34c-3.5,2.23-5.68,6.48-7.2,35.92c-1.21,23.55-0.22,28.54,3.43,31.52   c3.23,2.65,8.62,3.79,12.34,1.47c5.89-3.69,3.04-13.25,4.8-36.66c1.5-20.03,4.69-27.68,0-31.89   C650.73,402.64,644.72,402.84,640.78,405.34z" />
	<path class="st5" d="M674.08,402.39c-3.33,2.48-5.26,6.99-5.24,37.52c0.01,24.42,1.25,29.54,4.99,32.45   c3.32,2.58,8.68,3.5,12.22,0.92c5.61-4.1,2.31-13.86,2.84-38.16c0.45-20.8,3.2-28.87-1.64-33   C683.73,399.11,677.83,399.6,674.08,402.39z" />
	<path class="st5" d="M653.85,264.22c7.27,0,14.55-0.01,21.82-0.01c-0.84,1.37-2.65,4.72-2.63,9.35c0.02,5.1,2.26,8.7,3.16,10   c-7.53,0.1-15.06,0.21-22.59,0.31c0.89-1.42,2.84-4.93,2.89-9.82C656.55,269.19,654.71,265.66,653.85,264.22z" />
	<path class="st5" d="M689.94,236.52c0.27,1.17,0.54,2.34,0.81,3.52c-0.33,0.13-0.66,0.26-1,0.39   c-1.36,16.12-13.4,27.77-25.62,28.03c-15.36,0.33-25.81-17.47-25.81-31.94c0-16.11,13.08-32.42,25.81-31.94   c9.3,0.35,16.21,9.59,18.53,12.69C688.33,224.86,689.59,232.73,689.94,236.52z" />
	<path class="st6" d="M683.97,269.19c-20,0.13-40,0.26-60,0.39c3.84-22.13,12.35-65.15,22.06-66.19c0.78-0.08,5.76-0.35,9.42-0.52   c5.72-0.26,10.06-0.36,11.35-0.39c13.62-0.29,20.49-0.4,23.35,1.68c3.98,2.88,5.67,7.55,6.58,10.06c1.5,4.14,1.64,7.8,1.55,10.06   l-14.32,0.39C683.97,239.52,683.97,254.35,683.97,269.19z" />
	<path class="st7" d="M638.5,350.6c0,0-1,0.74-1.54,2.15c-0.5,1.33-15.86,56.47-4.74,59.85c4.23,1.29,10.73-5.38,17.49-3.8   c2.19,0.51,3.92,1.07,3.92,1.07c3.47,1.11,4.14,1.71,6.87,2.4c1.18,0.3,2.58,0.52,4.37,0.58c0.8,0.03,2.35,0.05,4.3-0.23   c2.04-0.29,2.81-0.67,7.12-1.89c1.81-0.51,3.28-0.9,3.55-0.97c6.39-1.63,12.84,4.08,15.48,3.29c3.44-1.02,4.34-14.14-3.45-59.4   c-0.01-0.28-0.13-2.05-1.6-3.21c-0.97-0.76-2-0.85-2.4-0.86c-15.43,0.06-30.86,0.13-46.29,0.19   C640.8,349.75,639.56,349.82,638.5,350.6z" />
	<path class="st8" d="M729.44,286.92c1.78-5.51,3.55-11.02,5.33-16.52c7.11,0.34,14.21,0.69,21.32,1.03   c2.13-4.47,4.26-8.95,6.4-13.42c-1.18-0.26-2.37-0.52-3.55-0.77" />
	<path class="st9" d="M722.85,304.94c1.9-7.7,3.79-15.39,5.69-23.09c2.01,0.25,4.03,0.51,6.04,0.76   c-2.14,7.48-4.28,14.97-6.43,22.45C726.39,305.02,724.62,304.98,722.85,304.94z" />
	<path class="st5" d="M633.45,287.19c0,0,2.86-1.38,6-2.32c27.48-8.26,47.87,0.32,47.87,0.32c2.1,0.88,3.95,1.81,5.55,2.71   c3.51,1.96,6.61,4.92,6.61,4.92c3.05,2.88,5.1,5.85,6.45,8.2c0.65,0.94,1.29,1.87,1.94,2.81c0.32,0.4,0.65,0.81,0.97,1.21   c0.46-0.27,1.05-0.63,1.74-1.06c0.51-0.32,1.88-1.2,3.44-2.32c1.97-1.43,3.38-2.63,3.95-3.11c5.63-4.74,9.46-7.95,12.26-6.9   c1.45,0.54,2.33,2.12,2.61,2.61c0.95,1.69,0.89,3.3,0.87,3.97c-0.17,4.8-5.36,8.05-5.81,8.32c-3.38,2.34-7,4.71-10.84,7.06   c-3.24,1.99-6.4,3.82-9.48,5.52c-5.87-2.28-9.32-5.34-11.42-7.84c-3.73-4.45-6.17-10.65-6.87-10.35c-0.09,0.04-0.12,0.33-0.16,0.9   c-0.1,1.22,0.08,2.03,0.15,3.38c0.03,0.51,0.06,1.02,0.1,1.53c0.23,2.5,0.26,13.83-0.19,44.32c-8.23-0.03-49.54-0.19-49.6-0.19   c-0.04,0-0.37,0-0.52,0c-0.01,0-0.19,0-0.2,0c-0.83-28.68-0.82-38.4-0.58-41.13c0.2-2.35,0.13-4.71,0.29-7.06   c0.14-2.06,0.13-3.35-0.1-3.39c-0.31-0.05-0.92,2.14-1.16,3c-0.93,3.31-1.16,5.61-1.16,5.61c-1.45,14.3-1.16,20.71-1.16,20.71   c0,28.04,0.71,39.38-3.68,41.03c-0.91,0.34-1.74,0.16-2.42,0c-15.18-3.46-8.88-64.01-7.74-69.77c0.61-3.1,2.23-5.32,2.23-5.32   c1.03-1.35,2-2.13,3.48-3.29C628.19,290.23,630.35,288.69,633.45,287.19z" />
	<path class="st10" d="M754.93,262.91c1.95-4.16,3.91-8.33,5.86-12.49c-15.37-2.9-30.74-5.81-46.11-8.71   c-1.47,4.39-2.93,8.78-4.4,13.17C725.17,257.55,740.05,260.23,754.93,262.91z" />
</g>
<g id="Layer_2">
	<path class="st5" d="M356.65,287.34c7.27,0,14.55-0.01,21.82-0.01c-0.84,1.37-2.65,4.72-2.63,9.35c0.02,5.1,2.26,8.7,3.16,10   c-7.53,0.1-15.06,0.21-22.59,0.31c0.89-1.42,2.84-4.93,2.89-9.82C359.35,292.31,357.51,288.79,356.65,287.34z" />
	<path class="st5" d="M392.32,264.6c-0.01,15.86-12.56,30.27-25.81,31.94c-8.48,1.07-14.9-3.39-14.9-3.39   c-4.18-2.82-6.3-6.52-7.25-8.51c0.5-0.26,1.19-0.61,2.03-1.05c2.39-1.24,2.94-1.55,2.89-1.72c-0.07-0.23-1.1,0-2.67-0.04   c-1.43-0.04-2.6-0.29-3.39-0.51c-0.55-2.85-1.1-5.7-1.66-8.55c-1-0.7-2.21-1.8-2.43-3.33c-0.23-1.58,0.74-2.6,1.58-4.84   c0.28-0.74,0.58-1.71,1.03-5.71c0.72-6.37,0.63-9.8,0.87-11.52c1.06-7.36,13.1-15.29,23.9-14.71   C381.04,233.45,392.33,249.55,392.32,264.6z" />
	<path class="st11" d="M361.85,296.91c0.63,0.56,1.31,0.66,1.6,0.69c16,0.08,32,0.16,48.01,0.24c-3.52-20.42-12.96-70.8-22.75-71.68   c-0.69-0.06-5.21-0.22-9.19-0.31c-4.43-0.1-7.76-0.1-10.9-0.09c-19.9,0.04-21.4,0.28-23.35,1.8c-3.98,3.1-5.67,8.11-6.58,10.81   c-1.5,4.45-1.64,8.38-1.55,10.81c5.92,0.02,11.85,0.04,17.77,0.06c0.1,0,0.51-0.01,0.87,0.31c0.28,0.25,0.38,0.56,0.42,0.69   c1.54,14.75,3.08,29.49,4.61,44.24C360.81,294.68,360.84,296.01,361.85,296.91z" />
	<path class="st12" d="M342.8,280.75c0.01-0.04,0.06-0.42,0.34-0.58c0.36-0.21,0.76,0.12,1.77,0.45c0.22,0.07,0.63,0.17,1.45,0.35   c1.06,0.24,1.26,0.39,1.58,0.46c0,0,0.13,0.03,0.26,0.04c0.64,0.06,1.78-0.5,1.84-0.41c0.03,0.04-0.17,0.26-1.03,0.93   c-0.91,0.06-1.59,0.07-1.88,0.06c-0.27-0.01-0.53-0.03-0.53-0.03c-0.09-0.01-0.19-0.02-0.3-0.03c-0.36-0.03-0.5-0.07-1.21-0.11   c-1.27-0.07-1.72-0.01-2.05-0.37C343.01,281.46,342.75,281.15,342.8,280.75z" />
	<path class="st12" d="M343.94,283.84c0.19-0.32,0.58-0.21,1.47-0.39c0.36-0.07,0.13-0.06,2.18-0.76c0.91-0.31,1.11-0.41,1.39-0.6   c0.63-0.41,0.94-0.86,0.96-0.84c0.02,0.02-0.75,1.15-2.07,2.26c0,0-1.85,1.57-3.19,1.53c-0.14,0-0.36-0.03-0.53-0.18   C343.85,284.63,343.76,284.13,343.94,283.84z" />
	<path class="st5" d="M306.68,306.74c1.61-2.04,3.41-3.11,3.87-3.35c5.02-2.64,12.59,8.04,23.48,12.13c16,6,32.96-4.57,34.58-0.77   c0.54,1.26-1.05,3.11-2.58,4.9c-1.96,2.29-4.33,3.71-11.09,6.23c-5.76,2.16-8.64,3.23-10.85,3.57c-2.04,0.31-6.68,0.8-14.71-1.29   c-10.44-2.72-25.87-9.64-25.29-16C304.24,310.6,305.4,308.36,306.68,306.74z" />
	<path class="st5" d="M312.94,337.32c4.1-0.06,16.08-0.37,26.13-6.39c3.44-2.06,7.3-4.37,9.68-8.9c1.18-2.25,1.54-4.2,3.87-8.71   c1.62-3.13,2.42-4.69,3.34-5.76c4.76-5.53,17.15-6.57,23.56-0.87c3.2,2.84,4.29,6.8,5.03,13.79c1.84,17.33-0.79,31.15-1.23,33.48   c-1.91,10.28-3.29,25.5-0.13,45.68c-10.77-0.06-21.55-0.13-32.32-0.19c0.97-20.03,1.93-40.06,2.9-60.1c1.67-1.31,3.34-2.62,5-3.93   c1.24-1.26,2.47-2.52,3.71-3.77c0.9-1.12,1.81-2.24,2.71-3.35c0.81-1.28,1.61-2.56,2.42-3.84c-1.15,2.13-2.77,4.66-5.03,7.26   c-3.13,3.59-6.37,6.02-8.87,7.61c-12.79,10.91-24.69,13.51-30.9,14.27c-2.39,0.29-21.41,2.44-24.58-5.03   c-1.25-2.95,0.11-7.08,2.52-9.29C303.56,336.66,307.04,337.42,312.94,337.32z" />
	<path class="st5" d="M378.67,416.94c3.33,2.48,5.26,6.99,5.24,37.52c-0.01,24.42-1.25,29.54-4.99,32.45   c-3.32,2.58-8.68,3.5-12.22,0.92c-5.61-4.1-2.31-13.86-2.84-38.16c-0.45-20.8-3.2-28.87,1.64-33   C369.03,413.65,374.93,414.15,378.67,416.94z" />
	<path class="st5" d="M367.63,418.74c3.33,2.48,5.26,6.99,5.24,37.52c-0.01,24.42-1.25,29.54-4.99,32.45   c-3.32,2.58-8.68,3.5-12.22,0.92c-5.61-4.1-2.31-13.86-2.84-38.16c-0.45-20.8-3.2-28.87,1.64-33   C357.98,415.46,363.88,415.95,367.63,418.74z" />
	<path class="st13" d="M350.68,386.29c-1.13,1.23-1.22,2.85-1.26,3.48c-0.23,3.62-2.88,35.85-3.29,39.58   c-0.08,0.72-0.29,2.58,0.77,3.48c0.79,0.68,1.96,0.54,2.9,0.39c4.26-0.7,5.64-2.09,7.97-2.55c3.84-0.76,4.06,2.23,9.16,2.39   c5.32,0.17,7.22-3.02,11.1-1.48c1.5,0.59,2.26,1.48,4.06,1.48c2.03,0,2.54-1.12,4.39-0.9c2.06,0.24,2.92,1.82,3.94,1.35   c0.73-0.34,0.9-1.45,0.97-2c1.02-8.66-5.35-38.56-5.58-43.39c-0.01-0.3-0.05-1.32-0.73-2.18c-1.26-1.6-3.86-1.49-4.94-1.45   c-3.37,0.11-18,0.32-23.6,0.18C355.04,384.64,352.29,384.52,350.68,386.29z" />
	<path class="st14" d="M343.42,259.89c-0.06-0.31,0.66-0.69,0.98-0.85c0.35-0.18,0.74-0.39,1.32-0.47c0.73-0.1,1.29,0.05,1.55,0.13   c0.99,0.28,1.63,0.88,1.93,1.21c1.75-0.58,2.62-0.89,2.61-0.92c-0.01-0.03-0.9,0.21-2.66,0.73c-0.03,0.15-0.06,0.31-0.1,0.46   c-0.12,0.09-1.86,1.44-3.28,1.09c-0.53-0.13-1.32-0.58-1.53-0.69c0,0-0.24-0.14-0.56-0.4   C343.51,260.02,343.43,259.96,343.42,259.89z" />
	<path class="st15" d="M347.31,259.93c-0.01,0.57-0.42,1.15-0.99,1.21c-0.64,0.06-1.22-0.55-1.22-1.23c0-0.67,0.58-1.29,1.22-1.23   C346.9,258.75,347.31,259.35,347.31,259.93z" />
	<path class="st16" d="M346.65,259.85c0,0.21-0.1,0.53-0.32,0.59c-0.25,0.07-0.61-0.24-0.61-0.6c0-0.35,0.35-0.66,0.61-0.6   C346.55,259.3,346.65,259.63,346.65,259.85z" />
	<path class="st17" d="M343.4,256.4c7.64-1.3,8.99-0.04,8.99-0.04" />
	<path class="st18" d="M343.4,259.74c-0.22-0.12-0.34-0.32-0.32-0.52c0.01-0.1,0.06-0.18,0.1-0.23" />
	<path class="st18" d="M346.98,258.55c-0.22-0.12-0.34-0.32-0.32-0.52c0.01-0.1,0.06-0.18,0.1-0.23" />
	<path class="st18" d="M346.66,258.5c-0.22-0.12-0.34-0.32-0.32-0.52c0.01-0.1,0.06-0.18,0.1-0.23" />
	<path class="st18" d="M346.24,258.45c-0.22-0.12-0.34-0.32-0.32-0.52c0.01-0.1,0.06-0.18,0.1-0.23" />
	<path class="st18" d="M345.79,258.52c-0.22-0.12-0.34-0.32-0.32-0.52c0.01-0.1,0.06-0.18,0.1-0.23" />
	<path class="st18" d="M343.74,259.5c-0.22-0.12-0.34-0.32-0.32-0.52c0.01-0.1,0.06-0.18,0.1-0.23" />
	<path class="st18" d="M345.01,258.71c-0.22-0.12-0.34-0.32-0.32-0.52c0.01-0.1,0.06-0.18,0.1-0.23" />
	<path class="st18" d="M344.54,258.99c-0.22-0.12-0.34-0.32-0.32-0.52c0.01-0.1,0.06-0.18,0.1-0.23" />
	<path class="st18" d="M344.09,259.23c-0.22-0.12-0.34-0.32-0.32-0.52c0.01-0.1,0.06-0.18,0.1-0.23" />
	<path class="st18" d="M345.39,258.58c-0.22-0.12-0.34-0.32-0.32-0.52c0.01-0.1,0.06-0.18,0.1-0.23" />
	<path class="st18" d="M348.76,259.39c-0.22-0.12-0.34-0.32-0.32-0.52c0.01-0.1,0.06-0.18,0.1-0.23" />
	<path class="st18" d="M348.39,259.11c-0.22-0.12-0.34-0.32-0.32-0.52c0.01-0.1,0.06-0.18,0.1-0.23" />
	<path class="st18" d="M348.02,258.91c-0.22-0.12-0.34-0.32-0.32-0.52c0.01-0.1,0.06-0.18,0.1-0.23" />
	<path class="st18" d="M347.66,258.76c-0.22-0.12-0.34-0.32-0.32-0.52c0.01-0.1,0.06-0.18,0.1-0.23" />
	<path class="st18" d="M347.34,258.68c-0.22-0.12-0.34-0.32-0.32-0.52c0.01-0.1,0.06-0.18,0.1-0.23" />
	<path class="st19" d="M380.21,479.14l-10.63,0.6c-0.05,0-0.11,0-0.16,0l-6.79,0.89c-0.27,0-0.49,0.07-0.77,0.22l-3.01,1.56   c-1.26,0.67-2.03,2.46-1.81,4.32l0,0c0.22,1.93,1.42,3.35,2.85,3.35l20.81,0.07c1.81,0,3.18-2.16,2.9-4.61l-0.38-3.13   C383,480.48,381.69,479.07,380.21,479.14z" />
	<path class="st20" d="M362.33,490.95c-0.48-2.7-0.9-5.32-1.38-8.02c0.28-0.14,0.55-0.28,0.76-0.35c0.69-0.28,1.31-0.41,1.66-0.48   c0.28,0,0.41-0.07,0.55-0.07c0.48,2.97,1.04,6.01,1.52,8.99L362.33,490.95z" />
	<line class="st21" x1="357.25" y1="490.48" x2="383.49" y2="490.48" />
	<path class="st19" d="M369.31,479.98l-10.63,0.6c-0.05,0-0.11,0-0.16,0l-6.79,0.89c-0.27,0-0.49,0.07-0.77,0.22l-3.01,1.56   c-1.26,0.67-2.03,2.46-1.81,4.32l0,0c0.22,1.93,1.42,3.35,2.85,3.35L369.8,491c1.81,0,3.18-2.16,2.9-4.61l-0.38-3.13   C372.1,481.32,370.79,479.91,369.31,479.98z" />
	<path class="st20" d="M351.44,490.49c-0.48-2.7-0.9-5.32-1.38-8.02c0.28-0.14,0.55-0.28,0.76-0.35c0.69-0.28,1.31-0.41,1.66-0.48   c0.28,0,0.41-0.07,0.55-0.07c0.48,2.97,1.04,6.01,1.52,8.99L351.44,490.49z" />
	<line class="st21" x1="346.36" y1="491.32" x2="372.59" y2="491.32" />
</g>
<g id="Layer_3">
	<path class="st5" d="M181.38,286.03c-7.27,0-14.55-0.01-21.82-0.01c0.84,1.37,2.65,4.72,2.63,9.35c-0.02,5.1-2.26,8.7-3.16,10   c7.53,0.1,15.06,0.21,22.59,0.31c-0.89-1.42-2.84-4.93-2.89-9.82C178.68,291,180.52,287.47,181.38,286.03z" />
	<path class="st5" d="M145.47,260.95c-2.02,15.73,8.58,31.63,21.5,34.98c8.27,2.14,15.21-1.45,15.21-1.45   c2.49-1.23,3.94-2.17,5.06-3.24c1.45-1.39,2.51-2.9,3.15-4.16c0.32-0.63,0.55-1.18,0.7-1.59c-0.68-0.2-1.27-0.4-1.77-0.57   c-0.55-0.2-0.36-0.14-1.44-0.54c-0.84-0.31-1.06-0.38-1.05-0.44c0.02-0.12,0.9-0.06,1.77-0.04c0.84,0.02,2,0.03,3.42-0.07   c0.76-1.82,1.5-3.74,2.21-5.78c0.41-1.18,0.78-2.33,1.13-3.46c0.64,0.04,1.54-0.02,2.13-0.6c1.07-1.07,0.31-3.17-0.31-6.68   c0,0-0.14-0.78-0.68-6.04c-0.59-5.64,0.48-8.71,0.48-11.02c-0.02-7.4-11.04-16.84-21.82-17.65   C160.64,231.5,147.38,246.02,145.47,260.95z" />
	<path class="st22" d="M171.57,296.95c-0.69,0.47-1.38,0.49-1.67,0.48c-15.88-1.97-31.76-3.94-47.64-5.91   c6.11-19.8,21.92-68.56,31.74-68.18c0.69,0.03,5.2,0.45,9.16,0.87c4.4,0.47,7.71,0.9,10.82,1.3c19.73,2.59,21.19,3.02,22.93,4.78   c3.55,3.58,4.59,8.77,5.14,11.57c0.91,4.6,0.55,8.52,0.15,10.92c-5.88-0.74-11.75-1.48-17.63-2.22c-0.1-0.02-0.5-0.07-0.9,0.2   c-0.31,0.21-0.45,0.51-0.5,0.63c-3.41,14.43-6.83,28.86-10.24,43.28C172.89,294.88,172.69,296.19,171.57,296.95z" />
	<path class="st12" d="M192.45,283.41c-0.06-0.19-0.25-0.29-0.38-0.35c-0.35-0.17-0.68-0.14-1.63-0.02   c-0.25,0.03-0.47,0.06-0.65,0.09c-0.13,0.02-0.2,0.03-0.23,0.03c-0.25,0.04-0.35,0.05-0.55,0.08c0,0-0.08,0.01-0.16,0.02   c-0.5,0.04-2.63-1.03-2.78-0.85c-0.09,0.11,0.49,0.79,1.1,1.24c0.06,0.04,0.51,0.37,0.88,0.46c0.06,0.01,0.32,0.07,0.65,0.11h0   c0.33,0.04,0.56,0.06,0.65,0.07c0.16,0.01,0.32,0.04,0.63,0.09c1.2,0.2,1.34,0.35,1.63,0.21c0.28-0.14,0.48-0.39,0.55-0.49   C192.33,283.89,192.52,283.65,192.45,283.41z" />
	<path class="st12" d="M191.57,284.94c-0.06-0.08-0.14-0.12-0.29-0.2c-0.13-0.07-0.38-0.18-1.08-0.31   c-0.05-0.01-0.15-0.03-0.33-0.06c-0.15-0.02-0.28-0.04-0.39-0.06c-0.43-0.06-0.59-0.07-0.77-0.09c-0.33-0.05-0.74-0.1-1.18-0.32   c-0.29-0.15-0.48-0.31-0.64-0.44c-0.58-0.49-0.75-0.92-0.81-0.89c-0.1,0.05,0.12,1.32,0.93,1.8c0.02,0.01,0.32,0.17,0.93,0.47   c0.67,0.34,0.63,0.36,1.23,0.67c1.01,0.52,1.45,0.63,1.88,0.59c0.28-0.02,0.43-0.09,0.53-0.2   C191.79,285.67,191.79,285.2,191.57,284.94z" />
	<path class="st5" d="M192.08,287.1c-1.03,0.01-1.79,0.71-2.38,1.28c-2.97,2.84-2.66,7.55-1.61,19.69   c0.42,4.83,0.76,8.65,0.96,10.77c-4.54-1-8.05-2.29-10.42-3.3c-2.09-0.89-8.26-3.64-15.5-6.29c-2.12-0.78-3.38-1.19-3.83-0.66   c-1.12,1.31,3.68,7.33,6.73,10.61c1.26,1.36,2.91,3.12,5.48,5.05c1.51,1.13,8.29,6.03,17.92,6.85c4.42,0.38,6.12-0.38,7.16-1.15   c2.04-1.5,2.68-3.87,3.09-5.71c2.99-13.49,0.02-24.08,0.02-24.08C198.87,297.27,196.01,287.08,192.08,287.1z" />
	<path class="st5" d="M185.77,343.52c0.03-2.09,0.17-6.39-0.58-12c-0.24-1.78-0.32-1.87-0.58-3.87c-0.66-5.13-0.49-7.49-0.77-11.23   c-0.44-5.69-0.66-8.54-1.76-10.17c-3.92-5.77-16.95-6.84-23.56-0.87c-3.24,2.93-4.31,6.97-5.03,13.79   c-1.84,17.33,0.79,31.15,1.23,33.48c1.91,10.28,3.29,25.5,0.13,45.68c10.77-0.06,21.55-0.13,32.32-0.19c-0.8-4.53-1.2-9.4-1-14.56   c0.02-0.43,0.04-0.86,0.06-1.29c0,0-0.07,1.43-0.07,1.43c-0.02,0,0.94-10.54,0.59-22.98C186.46,350.82,185.66,350.71,185.77,343.52   z" />
	<path class="st5" d="M159.35,415.62c-3.33,2.48-5.26,6.99-5.24,37.52c0.01,24.42,1.25,29.54,4.99,32.45   c3.32,2.58,8.68,3.5,12.22,0.92c5.61-4.1,2.31-13.86,2.84-38.16c0.45-20.8,3.2-28.87-1.64-33   C169,412.34,163.1,412.83,159.35,415.62z" />
	<path class="st5" d="M170.4,417.43c-3.33,2.48-5.26,6.99-5.24,37.52c0.01,24.42,1.25,29.54,4.99,32.45   c3.32,2.58,8.68,3.5,12.22,0.92c5.61-4.1,2.31-13.86,2.84-38.16c0.45-20.8,3.2-28.87-1.64-33   C180.05,414.14,174.15,414.64,170.4,417.43z" />
	<path class="st23" d="M186.65,385.03c1.12,1.41,0.84,3.35,0.77,3.87c-0.41,3.42,0.69,14.6,4.48,39.14   c0.07,0.35,0.44,2.46-0.77,3.48c-0.79,0.67-1.89,0.55-2.9,0.39c-4.26-0.7-5.64-2.09-7.97-2.55c-4.03-0.8-4.68,2.75-9.16,2.39   c-3.78-0.31-4.33-2.78-7.51-2.33c-2.84,0.41-3.45,2.53-6,2.24c-2.09-0.24-2.45-1.74-4.39-1.57c-1.92,0.18-2.91,1.79-4,1.29   c-0.66-0.3-0.88-1.16-0.97-1.55c-1.55-6.61,6.57-37.69,6.77-42.73c0.02-0.53,0.03-2.54,1.33-3.46c0.61-0.43,1.28-0.46,1.55-0.47   c7.02-0.28,12.55-0.13,23.6,0.18C183.02,383.41,185.38,383.44,186.65,385.03z" />
	<path class="st14" d="M194.6,262.6c0.1-0.3-0.57-0.76-0.87-0.97c-0.32-0.22-0.68-0.48-1.25-0.63c-0.24-0.07-0.54-0.12-1.55-0.07   c-0.84,0.04-1.06,0.09-1.26,0.16c-0.22,0.08-0.38,0.17-0.49,0.24c0.12,0.26,0.24,0.53,0.35,0.79c0.14,0.18,1.26,1.64,2.56,1.54   c0.47-0.04,1.1-0.24,1.61-0.49c0,0,0.26-0.1,0.61-0.33C194.48,262.72,194.57,262.66,194.6,262.6z" />
	<path class="st24" d="M190.73,262.14c-0.07,0.57,0.26,1.2,0.83,1.33c0.63,0.14,1.28-0.39,1.37-1.06c0.09-0.67-0.41-1.35-1.05-1.37   C191.29,261.02,190.8,261.56,190.73,262.14z" />
	<path class="st16" d="M191.4,262.15c-0.03,0.21,0.03,0.54,0.24,0.62c0.24,0.1,0.64-0.16,0.68-0.51c0.04-0.35-0.27-0.7-0.53-0.67   C191.56,261.62,191.42,261.93,191.4,262.15z" />
	<path class="st25" d="M189.44,261.88l-1.9-1.85l-1.3-0.1l1.12-0.31l0.63,0.17l1.52,1.34c-0.12,0.05-0.25,0.1-0.37,0.15   C189.24,261.48,189.34,261.68,189.44,261.88z" />
	<path class="st17" d="M185.52,257.84c1.31-0.18,5.47-0.64,9.06,0.97c0.6,0.27,1.11,0.56,1.56,0.86" />
	<path class="st5" d="M160.23,320.29c-0.02,5.55,0.84,9.41,2.58,16.9c0.22,0.96,2.14,9.02,6.71,18.06c1.19,2.36,2.67,5,5.03,5.29   c1.78,0.22,3.28-0.98,5.29-2.58c1.23-0.98,3.08-2.68,5.81-6.84c1.84-2.81,3.06-5.19,3.74-6.58c2.85-5.84,4.61-9.42,5.24-14.24   c0.34-2.6,0.54-6.89-1.02-12.27c-0.24-0.76-1.14-3.35-3.68-4.58c-0.7-0.34-2.06-1-3.39-0.45c-1.46,0.61-2.38,2.49-2.19,4.71   c-0.04,2.51-0.09,5.01-0.13,7.52c-0.61,2.21-1.5,5.29-2.71,8.95c-1.73,5.25-2.59,7.88-3.1,7.79c-0.99-0.17-1.22-10.34-0.13-20.26   c0.25-2.26,1.04-10.09-2.22-14.4c-0.22-0.29-0.46-0.53-0.74-0.77c-3.04-2.52-8.6-2.22-11.81,0.39   C160.27,309.57,160.25,313.92,160.23,320.29z" />
	<path class="st26" d="M194.63,262.36c0.19-0.12,0.31-0.32,0.29-0.5c-0.01-0.08-0.04-0.15-0.08-0.2" />
	<path class="st26" d="M189.52,261.07c0.19-0.12,0.31-0.32,0.29-0.5c-0.01-0.08-0.04-0.15-0.08-0.2" />
	<path class="st26" d="M189.96,260.99c0.19-0.12,0.31-0.32,0.29-0.5c-0.01-0.08-0.04-0.15-0.08-0.2" />
	<path class="st26" d="M190.38,260.92c0.19-0.12,0.31-0.32,0.29-0.5c-0.01-0.08-0.04-0.15-0.08-0.2" />
	<path class="st26" d="M190.93,260.87c0.19-0.12,0.31-0.32,0.29-0.5c-0.01-0.08-0.04-0.15-0.08-0.2" />
	<path class="st26" d="M191.47,260.84c0.19-0.12,0.31-0.32,0.29-0.5c-0.01-0.08-0.04-0.15-0.08-0.2" />
	<path class="st26" d="M192.02,260.86c0.19-0.12,0.31-0.32,0.29-0.5c-0.01-0.08-0.04-0.15-0.08-0.2" />
	<path class="st26" d="M192.41,260.96c0.19-0.12,0.31-0.32,0.29-0.5c-0.01-0.08-0.04-0.15-0.08-0.2" />
	<path class="st26" d="M192.7,261.04c0.19-0.12,0.31-0.32,0.29-0.5c-0.01-0.08-0.04-0.15-0.08-0.2" />
	<path class="st26" d="M193.08,261.19c0.19-0.12,0.31-0.32,0.29-0.5c-0.01-0.08-0.04-0.15-0.08-0.2" />
	<path class="st26" d="M193.41,261.35c0.19-0.12,0.31-0.32,0.29-0.5c-0.01-0.08-0.04-0.15-0.08-0.2" />
	<path class="st26" d="M193.75,261.55c0.19-0.12,0.31-0.32,0.29-0.5c-0.01-0.08-0.04-0.15-0.08-0.2" />
	<path class="st26" d="M194.05,261.79c0.19-0.12,0.31-0.32,0.29-0.5c-0.01-0.08-0.04-0.15-0.08-0.2" />
	<path class="st26" d="M194.34,262.09c0.19-0.12,0.31-0.32,0.29-0.5c-0.01-0.08-0.04-0.15-0.08-0.2" />
	<line class="st21" x1="152.82" y1="489.79" x2="179.05" y2="489.79" />
	<path class="st19" d="M153.93,481.87l-0.38,3.13c-0.27,2.46,1.1,4.61,2.9,4.61l20.81-0.07c1.42,0,2.63-1.41,2.85-3.35l0,0   c0.22-1.86-0.55-3.65-1.81-4.32l-3.01-1.56c-0.27-0.15-0.49-0.22-0.77-0.22l-6.79-0.89c-0.05,0-0.11,0-0.16,0l-10.63-0.6   C155.47,478.52,154.15,479.93,153.93,481.87z" />
	<path class="st19" d="M165.42,482.36l-0.38,3.13c-0.27,2.46,1.1,4.61,2.9,4.61l20.81-0.07c1.42,0,2.63-1.41,2.85-3.35l0,0   c0.22-1.86-0.55-3.65-1.81-4.32l-3.01-1.56c-0.27-0.15-0.49-0.22-0.77-0.22l-6.79-0.89c-0.05,0-0.11,0-0.16,0l-10.63-0.6   C166.95,479.01,165.64,480.42,165.42,482.36z" />
	<path class="st20" d="M183.19,489.66c0.48-2.97,1.04-6.01,1.52-8.99c0.14,0,0.28,0.07,0.55,0.07c0.35,0.07,0.97,0.21,1.66,0.48   c0.21,0.07,0.48,0.21,0.76,0.35c-0.48,2.7-0.9,5.32-1.38,8.02L183.19,489.66z" />
	<line class="st21" x1="165.15" y1="490.42" x2="191.39" y2="490.42" />
	<path class="st27" d="M630.63,473.99c0.1-0.9,0.3-2.7,1.4-4.5c0.9-1.4,1.9-2.2,2.4-2.6c6.1,0,12.2,0,18.3,0c0.6,0.3,2,1.2,2.9,3   c1.4,2.7,0.9,5.4,0.8,6c-8.6,0-17.2,0-25.9,0L630.63,473.99L630.63,473.99z" />
	<path class="st27" d="M667.27,473.47c0.1-0.9,0.3-2.7,1.4-4.5c0.9-1.4,1.9-2.2,2.4-2.6c6.1,0,12.2,0,18.3,0c0.6,0.3,2,1.2,2.9,3   c1.4,2.7,0.9,5.4,0.8,6c-8.6,0-17.2,0-25.9,0L667.27,473.47L667.27,473.47z" />
</g>
</svg>