<svg id="maintenance" xmlns:xlink="http://www.w3.org/1999/xlink" xmlns="http://www.w3.org/2000/svg" version="1.1" x="0px" y="0px" viewBox="200 200 420 560" preserveAspectRatio="none" style="enable-background: new 0 0 612 792">
<style type="text/css">.st0{fill:#E2B780;stroke:#000000;stroke-width:0.1;stroke-miterlimit:10;}
	.st1{fill:#E2B788;stroke:#000000;stroke-width:0.1;stroke-miterlimit:10;}
	.st2{fill:none;stroke:#000000;stroke-width:0.1;stroke-miterlimit:10;}
	.st3{fill:none;stroke:#612C00;stroke-width:3;stroke-miterlimit:10;}
	.st4{fill:#414042;}
	.st5{fill:#603913;stroke:#612C00;stroke-width:1;stroke-miterlimit:10.001;}
	.st6{fill:#754C29;stroke:#754C29;stroke-width:3.0002;stroke-miterlimit:10.001;}
	.st7{stroke:#000000;stroke-miterlimit:10;}
	.st8{fill:#F1F2F2;stroke:#939598;stroke-width:0.5;stroke-miterlimit:10;}
	.st9{fill:#F9F9FA;}
	.st10{fill:#FFC82F;stroke:#000000;stroke-width:0.25;stroke-miterlimit:10;}
	.st11{display:none;fill:#F99F1E;stroke:#B82025;stroke-miterlimit:10;}
	.st12{opacity:0.5;fill:#F99F1E;stroke:#B82025;stroke-miterlimit:10;enable-background:new    ;}
	.st13{fill:#F9F9FA;stroke:#000000;stroke-width:0.75;stroke-miterlimit:10;}
	.st14{fill:#E2B788;stroke:#E1B890;stroke-miterlimit:10;}
	.st15{fill:#FFFFFF;stroke:#000000;stroke-miterlimit:10;}
	.st16{display:none;}
	.st17{display:inline;}
	.st18{fill:#603913;}
	.st19{fill:none;stroke:#612C00;stroke-miterlimit:10;}
	.st20{fill:none;stroke:#3C2415;stroke-miterlimit:10;}
	.st21{stroke:#000000;stroke-width:0.5;stroke-miterlimit:10;}
	.st22{fill:#FFFFFF;stroke:#FFFFFF;stroke-width:0.5;stroke-miterlimit:10;}
	.st23{fill:#FFFFFF;stroke:#3C2415;stroke-miterlimit:10;}
	.st24{fill:#E2B780;stroke:#C6A269;stroke-miterlimit:10;}
	.st25{fill:#B37D29;stroke:#926D2A;stroke-miterlimit:10;}
	.st26{fill:#E2B780;stroke:#926D2A;stroke-miterlimit:10;}
	.st27{fill:#E2B780;stroke:#000000;stroke-width:2;stroke-miterlimit:10;}</style>

<g id="Layer_1_1_">
	<path class="st0" d="M283.9,245.6c12.9-13.3,29.3-5.5,46.7,0.5c10.9,3.8,20.3,4.9,16.5,41.6c-0.1,0.6,0.1,1.1,0.1,1.7   c2.7,38.1-44.7,56.1-67.8,29.9l-7-8.3C265.1,289.1,267.3,262.6,283.9,245.6L283.9,245.6z" />
	<path class="st1" d="M235.7,361.3c13.4-35,131.3-36.6,145.8-1.7c6.8,16.5-15.1,27-20.8,70c-5.5,41.8,11.9,57.3-0.3,74.2   c-17,23.6-73,24-92.2,0c-12.4-15.6,0.5-29.4-6.7-68.3C253,389,229.1,378.4,235.7,361.3z" />
	<g>
		<g>
			<path class="st0" d="M361.3,352.5c8.6-5.6,20.6-2.3,27.2,3.6s7.8,14.2,8.8,22.8c3.5,29.4,5.3,44.1,4.6,55.7     c-2.3,41.1-9.9,86.8-18.9,87c-2,0-8.5-2-12.8-7.3c-0.2-0.3-0.4-0.5-0.5-0.6c-10.3-13.3,0.9-29.3,5-73c2.5-27-0.5-34.3-3.1-38.7     c-6-10.1-13.8-11.5-16.9-22.5C352.4,371.1,353,357.9,361.3,352.5z" />
			<path class="st2" d="M361.3,352.5c8.6-5.6,20.6-2.3,27.2,3.6s7.8,14.2,8.8,22.8c3.5,29.4,5.3,44.1,4.6,55.7     c-2.3,41.1-9.9,86.8-18.9,87c-2,0-8.5-2-12.8-7.3c-0.2-0.3-0.4-0.5-0.5-0.6c-10.3-13.3,0.9-29.3,5-73c2.5-27-0.5-34.3-3.1-38.7     c-6-10.1-13.8-11.5-16.9-22.5C352.4,371.1,353,357.9,361.3,352.5z" />
		</g>
	</g>
	<path class="st3" d="M321.1,424.7" />
	<path class="st3" d="M432.3,424.7" />
	<path class="st4" d="M600.5,681.2c0.8-3.4,0.8-6.7,0.1-10.1c-0.5-2.5-4.1-2.2-4.8,0c-0.1,0.4-0.3,0.9-0.5,1.3h-0.1   c0,0.1,0,0.2,0,0.2c-0.6,1.6-1.5,3-2.5,4.4c-0.5-0.2-1.1-0.2-1.6-0.1c-0.5-0.2-1.1-0.3-1.7-0.2c-4.3,0.8-7.9,4.3-8.9,8.6   c-0.6,0.8-1.3,1.7-1.9,2.5c-1.9,1.7-3.7,3.6-5.3,5.6c-0.4,0.1-0.8,0.3-1.1,0.6c-2.1,1.8-4,3.9-5.8,6.1c-2,1.4-3.8,3-5.4,4.7   c0,0-0.1,0-0.1,0.1c-0.1,0.1-0.1,0.1-0.2,0.2c-0.1,0-0.1-0.1-0.2-0.1l-0.2-0.2c0,0-0.1,0.1-0.1,0.1c-0.5-0.1-1.1,0-1.7,0.4   c-3.7,2.5-7,5.7-9.6,9.4c-0.7,0.7-1.3,1.3-1.9,2c-0.9,0.2-1.7,0.9-1.9,1.8c-0.7-0.6-2-0.7-2.8-0.2c-0.6,0.4-1,0.9-1.1,1.6   c-0.3,0.1-0.6,0.2-0.9,0.4c-5.5,4-10.1,9-13.6,14.7c-0.1,0-0.2,0.1-0.3,0.1c-0.3-0.1-0.6-0.1-1,0c-0.5-1.1-1.9-1.8-3-1.5   c-6.4,2.1-12.2,5.5-17.1,10.2c-0.7,0.7-0.8,1.7-0.5,2.6c-0.8,0.5-1.6,1.2-2.2,1.9c-0.5,0.6-0.7,1.3-0.6,1.9   c-0.5,0.7-0.6,1.6-0.1,2.6c0.2,0.4,0.5,0.8,0.7,1.2c-0.1,0-0.1,0.1-0.2,0.1c0.2,0.1,0.4,0.3,0.5,0.4c1.1,1.6,2.4,2.9,4,4.1   c1.1,0.8,2.8,0.2,3.4-0.9c0.1,0,0.1-0.1,0.1-0.1c1.5,0.2,3,0.1,4.5-0.2c1.5-0.3,2.4-2.4,1.5-3.7c-0.7-0.9-1.3-1.8-2-2.8   c0.8,0.4,1.5,0.9,2.2,1.6c1.3,1.3,3.7,0.7,4.2-1.1c0.4-1.4,0.6-2.8,0.8-4.2c1.5,0.7,3.1,1.3,4.6,2c1.4,0.6,3.3-0.9,3.2-2.4   c0-0.1,0-0.2-0.1-0.3c0.6-0.3,1-0.6,1.4-1.1c1.3,0.3,2.6-0.2,3.1-1.7c0.1-0.4,0.2-0.8,0.2-1.2c0,0,0,0,0.1,0c2,0,3.3-0.9,4.1-2.2   c0.3,0.2,0.7,0.3,1,0.5c1.5,0.7,3.1,0.2,3.7-1.5c0.2-0.5,0.3-1,0.4-1.5c4.7-2.4,8.9-5.8,13.2-8.9c1.4-1,2.4-2.6,2.4-4.2   c0.3,0,0.6-0.1,0.9-0.1c0.8-0.2,1.6-0.7,2.2-1.3l1.1-1.4c0.5-0.5,0.8-1,1-1.6c0.1-0.1,0.1-0.3,0.2-0.5c0.6,0.1,1.2,0.1,1.7-0.1   c0.7-0.2,1.2-0.5,1.7-0.9c0.5-0.4,1-0.8,1.3-1.4l0.1-0.3c0.2-0.1,0.4-0.1,0.6-0.2c0.6-0.2,1.2-0.5,1.6-1c0.2-0.2,0.5-0.5,0.6-0.8   c0,0,0,0,0,0c0.7-0.2,1.2-0.5,1.7-0.9c0.5-0.4,1-0.8,1.3-1.4c0-0.1,0.1-0.1,0.1-0.2c1.1-0.1,2.4-0.8,3.1-1.5c0.7-0.7,1.3-1.9,1.4-3   c0,0,0,0,0,0c0.6-0.3,1.1-0.7,1.4-1.3c0.4-0.5,0.7-1,0.9-1.7c0,0,0-0.1,0-0.1c0.3,0,0.6-0.1,0.9-0.2c0.7-0.2,1.2-0.5,1.7-0.9   c0.5-0.4,1-0.8,1.3-1.4c0,0,0,0,0-0.1c0.6-0.2,1.1-0.5,1.5-1c0.3-0.3,0.5-0.7,0.8-1c0.3-0.6,0.6-1.2,0.6-1.9c0.5-0.2,1-0.5,1.4-0.9   c0.1-0.2,0.2-0.3,0.4-0.5c0.8,0,1.5-0.2,2.2-0.6c1-0.6,2-1.8,2.3-3c0,0,0-0.1,0-0.1c0,0,0,0,0,0c1.7,0.4,3.8-1.2,3.1-3.1   c-0.1-0.2-0.2-0.5-0.3-0.7c0.1-0.2,0.3-0.3,0.4-0.5c0.3-0.2,0.5-0.4,0.8-0.6c0.5-0.5,0.8-1,1-1.6c0.3-0.6,0.5-1.2,0.4-1.9   c0-0.9-0.3-1.8-0.7-2.6C600.2,682,600.4,681.6,600.5,681.2z" />
	<path class="st4" d="M521.5,740.2c-3.6,0-5.2,3.1-4.8,5.9c-0.8-0.6-1.8-1-3-1c-6.4,0-6.4,10,0,10c3.6,0,5.2-3.1,4.8-5.9   c0.8,0.6,1.8,1,3,1C527.9,750.2,527.9,740.2,521.5,740.2z" />
	
		<ellipse transform="matrix(0.7676 -0.641 0.641 0.7676 -327.0223 516.4108)" class="st5" cx="548.5" cy="709.1" rx="64.3" ry="7.6" />
	
		<ellipse transform="matrix(0.7676 -0.641 0.641 0.7676 -263.7251 407.7148)" class="st6" cx="430.3" cy="567.5" rx="2.1" ry="183" />
	<g>
		<g>
			<path class="st0" d="M230.1,358c-22.2,25.3-3.6,90.4,33.6,108.4c4.8,2.3,16.3,4.1,39.2,7.7c12.5,2,27.5,3.8,42.6-2.3     c7.9-3.2,9.2-6,9.3-7.7c0.3-3.6-3.8-7.5-10.1-10.1c-8.2,0.9-22.4,1.4-38.7-3.9c-5.3-1.7-18.3-5.9-27.9-14.7     c-29.1-26.8-9.1-80.5-26.3-87.1C244.4,345.4,234.7,352.8,230.1,358z" />
			<path class="st2" d="M230.1,358c-22.2,25.3-3.6,90.4,33.6,108.4c4.8,2.3,16.3,4.1,39.2,7.7c12.5,2,27.5,3.8,42.6-2.3     c7.9-3.2,9.2-6,9.3-7.7c0.3-3.6-3.8-7.5-10.1-10.1c-8.2,0.9-22.4,1.4-38.7-3.9c-5.3-1.7-18.3-5.9-27.9-14.7     c-29.1-26.8-9.1-80.5-26.3-87.1C244.4,345.4,234.7,352.8,230.1,358z" />
		</g>
	</g>
	<path class="st1" d="M283,519.7c8.6-2.5,17.4,1.3,20.6,3.4c10.5,6.8,26.5,36.5-40.4,211.4c-7.9-0.8-15.8-1.6-23.7-2.4   c3.4-73.7,10.6-125.6,16.1-157.3C259,555.3,264.9,525,283,519.7z" />
	<path class="st1" d="M320.7,524c7.1-5.4,17-5.8,21.6-4.8c16.4,3.4,36.8,37.3,30.9,216c-7.4,0.4-14.8,0.8-22.1,1.2   c-10.5-40.6-23.6-93.4-36.1-151.3C311,566.8,304.8,536.1,320.7,524z" />
	<path class="st7" d="M286.6,253.6h46.6c5.5,0,9.9,4.6,9.8,10.1l-0.6,51.9h26.8l-6-55.2c-1.1-10-4.4-20.4-10.3-28.4   c-1.1-1.4-2-2.5-3.1-3.7c-2.6-2.7-6.2-4.9-10-6.6c-10.3-4.6-25.3-4.6-28.9-4.5c-0.5,0-0.9,0-1.4,0c-2.4-0.1-11.7,0.1-25.4,4.2   c-0.4,0.1-1.6,0.5-2,0.7c-12.3,4.1-20.5,14.9-22.6,27.9l-11,65.6H277l0.2-52.2C277,258,281.3,253.6,286.6,253.6z" />
	<path class="st8" d="M383.4,588.7c-3.3,1.6-7.7-4.4-23.8-8.4c-4.4-1.1-12.7-3.1-22.8-2.6c-15.6,0.8-17.8,6.6-30.5,6.5   c-12.6-0.1-13.6-5.9-26-7.2c-20.5-2.1-31.1,12.5-37.4,9c-5.9-3.2-6.4-21.4,16.4-86.1c1.1-3.1,4.1-5.2,7.5-5.2   c30.6,0.3,61.2,0.6,91.8,0.9c3.4,0,6.3,2.2,7.4,5.4C388.3,569.2,388.2,586.4,383.4,588.7z" />
	<path class="st9" d="M407.4,601.8" />
	<path class="st10" d="M348.4,335.8c23.4-3.5,53.8,12.4,53.2,24.6c-0.5,10.2-22.6,9.9-49.6,29.8c-25.6,18.9-25.9,34-39.7,34.5   c-14.2,0.5-16-15.4-45-32.6c-27.4-16.3-46.1-14-48.9-24c-4.1-14.2,28.3-36.7,51.6-33.5c18.3,2.5,20.9,19.5,37.7,19.9   C324.1,354.9,327.9,338.8,348.4,335.8z" />
	<path class="st11" d="M335.9,350.7c22.3-8.2,50.2,2.9,50.6,10.5c0.4,7-23.4,5.3-48.1,26.9c-14.8,13-17.1,23.2-27.3,23.7   c-10.4,0.5-13.6-9.9-30.9-22.4c-25.3-18.3-45.2-15.2-45.6-22.6c-0.4-8.8,26.8-23.7,47.4-16.8c12.2,4,14.5,13.1,25.9,13.6   C319.2,364,322.9,355.4,335.9,350.7z" />
	<polygon class="st12" points="239,345.6 247.4,341.5 245.6,351 237.9,353.7" />
	<polygon class="st12" points="248,354.4 255.6,349 255.4,358.7 248.3,362.6" />
	<polygon class="st12" points="258.1,361 265.3,355.1 265.7,364.8 258.8,369.2" />
	<polygon class="st12" points="268.4,366.8 275,360.1 276.4,369.7 270,374.8" />
	<polygon class="st12" points="280.4,371.9 285.6,364.1 288.8,373.3 283.5,379.5" />
	<polygon class="st12" points="292.9,377.1 297.8,369.2 301.3,378.2 296.1,384.6" />
	<polygon class="st12" points="305.1,380.2 309,371.7 313.6,380.3 309.3,387.2" />
	<polygon class="st12" points="317.4,378 320.5,369.2 325.9,377.3 322.2,384.6" />
	<polygon class="st12" points="330.8,373.1 333.5,364.2 339.2,372 336,379.5" />
	<polygon class="st12" points="342.3,367.8 344.5,358.8 350.7,366.3 347.8,373.9" />
	<polygon class="st12" points="353.6,364.2 354.4,354.9 361.6,361.4 359.9,369.4" />
	<polygon class="st12" points="364.3,358.3 364.1,348.9 372,354.5 371.2,362.7" />
	<polygon class="st12" points="374.4,350.5 373.1,341.2 381.6,345.9 381.8,354" />
	<path class="st13" d="M299,652.2" />
	<path class="st1" d="M235.9,735.7l-0.9,4.2c-0.7,3.2,1.6,6.3,4.9,6.5l37.9,1.8c2.6,0.1,4.9-1.7,5.5-4.2l0,0c0.5-2.5-0.8-4.9-3-5.9   l-5.4-2.4c-0.5-0.2-0.9-0.3-1.4-0.4l-12.3-1.8c-0.1,0-0.2,0-0.3,0l-19.3-1.8C239,731.3,236.5,733,235.9,735.7z" />
	<path class="st14" d="M358.4,745.4" />
	<path class="st1" d="M347.7,737.7l-0.7,4.2c-0.5,3.3,2,6.2,5.3,6.2l38-0.1c2.6,0,4.8-1.9,5.2-4.5l0,0c0.4-2.5-1-4.9-3.3-5.8   l-5.5-2.1c-0.5-0.2-0.9-0.3-1.4-0.3l-12.4-1.2c-0.1,0-0.2,0-0.3,0l-19.4-0.8C350.5,733.2,348.2,735.1,347.7,737.7z" />
	<path class="st15" d="M301.5,280.8c-0.3-0.4-1.5-1.7-2.9-2.9c-0.5-0.4-1-0.9-1.9-1.2c0,0-0.2-0.1-0.4-0.1c-0.5-0.1-1.6-0.4-2.9,0   c-1.9,0.6-2.8,2.2-3,2.5c-4.3-0.6-6.3-0.9-6.3-0.8s1.9,0.5,6.2,1.3c0.3,0.5,1.3,2.4,3.3,3c1,0.3,2,0.1,2.4,0.1c1-0.1,1.4-0.5,2.6-1   C299.2,281.5,300.2,281.1,301.5,280.8z" />
	<g class="st16">
		<g class="st17">
			<path class="st18" d="M589.7,688.7c3.2,0,3.2-5,0-5S586.5,688.7,589.7,688.7L589.7,688.7z" />
		</g>
	</g>
</g>
<g id="Layer_2_1_">
	<path class="st7" d="M298.8,330.8c0.9-3.8,18.1-4.2,19.1-0.5c0.5,1.6-2.9,2.6-5.8,8c-2.6,4.9-2.5,8.8-3.6,8.9   c-1.2,0-1.2-3.9-4.2-8.9C301.2,333.2,298.4,332.4,298.8,330.8z" />
	<path class="st19" d="M99,324.7" />
	<path class="st15" d="M316.4,280.8c1-1.1,1.9-2,2.7-2.5c1.1-0.8,1.6-1.3,2.6-1.5c0.4-0.1,1.6-0.4,2.9,0c1.9,0.6,2.8,2.2,3,2.5   c4.3-0.6,6.3-0.8,6.3-0.8s-1.9,0.5-6.2,1.3c-0.3,0.5-1.3,2.4-3.3,3c-1.1,0.3-2.1,0.1-2.4,0.1c-0.8-0.1-1.3-0.4-1.7-0.6   C319.4,281.8,318.2,281.3,316.4,280.8z" />
	<circle class="st20" cx="322.7" cy="279.7" r="2.1" />
	<circle class="st21" cx="322.7" cy="279.7" r="1.6" />
	<circle class="st22" cx="323.4" cy="278.8" r="0.3" />
	<circle class="st23" cx="295" cy="279.7" r="2.1" />
	<circle class="st21" cx="295" cy="279.7" r="1.6" />
	<circle class="st22" cx="295.6" cy="278.8" r="0.3" />
	<path class="st24" d="M308.4,285c-3,0-5.7,11.9-4.4,12.5c0.2,0.1,0.4-0.1,1.3-0.2c1.1-0.1,1.4,0.3,2.5,0.3c1.3,0,1.4-0.6,2.6-0.5   c1.4,0,1.8,0.8,2.2,0.6C313.9,297,311.4,285,308.4,285z" />
	<path class="st25" d="M297.5,308.6c0.7-0.7,3.9-3.7,8.2-3.4c1.1,0.1,2.1,0.4,2.9,0.7c0.8-0.3,1.7-0.6,2.8-0.7   c4.1-0.3,7,2.7,7.6,3.4c-1.8,1.4-4.9,3.2-8.9,3.5c-0.7,0-1.3,0-1.9,0s-1.2,0-1.9,0C302.4,311.8,299.3,310,297.5,308.6z" />
	<path class="st24" d="M218.4,295.2" />
	<path class="st26" d="M297.5,308.3c3.3,0.4,7,0.6,11,0.6c3.8,0,7.4-0.2,10.6-0.6" />
	<polyline class="st27" points="336.8,276.6 333.2,272.8 315.6,274.1" />
	<polyline class="st27" points="280.4,276.7 284,272.8 301.6,273.8" />
</g>
</svg>