<svg width="905" height="1781" viewBox="0 0 905 1781" fill="none" xmlns="http://www.w3.org/2000/svg">
<circle cx="90" cy="91" r="90" fill="#010D34"/>
<circle cx="800" cy="1691" r="90" fill="#010D34"/>
<circle cx="90" cy="1691" r="90" fill="#010D34"/>
<circle cx="800" cy="91" r="90" fill="#010D34"/>
<rect y="177" width="891" height="1403" fill="white"/>
<line x1="0.5" y1="91" x2="0.5" y2="1691" stroke="black"/>
<line x1="90" y1="0.5" x2="800" y2="0.5" stroke="black"/>
<line x1="890.5" y1="91" x2="890.5" y2="1691" stroke="black"/>
<line x1="90" y1="1780.5" x2="800" y2="1780.5" stroke="black"/>
<rect x="90" y="1580" width="710" height="201" fill="#010D34"/>
<rect y="1580" width="217" height="111" fill="#010D34"/>
<rect x="729" y="1580" width="161" height="111" fill="#010D34"/>
<circle cx="445" cy="1681" r="67" fill="white"/>
<circle cx="445" cy="1681" r="56" fill="#010D34"/>
<rect x="90" y="1" width="710" height="176" fill="#010D34"/>
<rect y="91" width="158" height="86" fill="#010D34"/>
<rect x="724" y="91" width="167" height="86" fill="#010D34"/>
<rect x="347" y="83" width="196" height="16" fill="white"/>
<circle cx="692" cy="91" r="18" fill="white"/>
<rect x="855" y="156" width="35" height="1458" fill="#010D34"/>
<rect y="150" width="35" height="1458" fill="#010D34"/>
<ellipse cx="618.5" cy="544.5" rx="91.5" ry="114.5" fill="#010D34"/>
<path d="M619 1148L460.517 695.75H777.483L619 1148Z" fill="#010D34"/>
<rect x="459" y="695.21" width="77.9667" height="327" transform="rotate(-12 459 695.21)" fill="#010D34"/>
<rect x="696.921" y="673" width="83.9045" height="337.468" transform="rotate(15.5 696.921 673)" fill="#010D34"/>
<path d="M618 827L533.996 671H702.004L618 827Z" fill="white"/>
<rect x="507" y="695.5" width="37" height="244" transform="rotate(-30 507 695.5)" fill="#010D34"/>
<rect x="700.553" y="674" width="28" height="206" transform="rotate(30.5 700.553 674)" fill="#010D34"/>
<path d="M618.5 723L588.542 702.961L599.985 670.539H637.015L648.458 702.961L618.5 723Z" fill="#010D34"/>
<rect x="600.658" y="703" width="14" height="89" transform="rotate(3 600.658 703)" fill="#010D34"/>
<rect x="623" y="704.342" width="14" height="95" transform="rotate(-5.5 623 704.342)" fill="#010D34"/>
<rect x="603" y="703" width="32" height="115" fill="#010D34"/>
<path d="M517.696 864.991L638.624 867.102L635.238 1061.07L514.31 1058.96L517.696 864.991Z" fill="#010D34"/>
<rect x="600.674" y="870.43" width="103.159" height="193" transform="rotate(-5 600.674 870.43)" fill="#010D34"/>
<rect x="521.914" y="1014" width="94.3049" height="563.108" rx="47.1525" transform="rotate(0.5 521.914 1014)" fill="#010D34"/>
<rect x="622" y="1003.82" width="94" height="574" rx="47" transform="rotate(-0.5 622 1003.82)" fill="#010D34"/>
<rect x="607" y="1130" width="25" height="32" fill="#010D34"/>
<ellipse cx="848" cy="927.5" rx="43" ry="62.5" fill="white"/>
<rect x="835" y="813.348" width="5" height="84" transform="rotate(-28 835 813.348)" fill="white"/>
<rect x="873.298" y="967" width="7.09804" height="183.608" transform="rotate(38.5 873.298 967)" fill="white"/>
<rect x="689.117" y="701.319" width="79" height="315.012" rx="39.5" transform="rotate(-27.5 689.117 701.319)" fill="#010D34"/>
<rect x="844.687" y="879" width="76.5394" height="309.726" rx="38.2697" transform="rotate(38 844.687 879)" fill="#010D34"/>
<rect x="702.474" y="661" width="94.6179" height="13" transform="rotate(15.5 702.474 661)" fill="white"/>
<rect x="477.327" y="665" width="76.5339" height="290.7" rx="37.0896" transform="rotate(33 477.327 665)" fill="#010D34"/>
<rect x="419.63" y="884.373" width="73.6355" height="249.861" rx="36.8178" transform="rotate(117.5 419.63 884.373)" fill="#010D34"/>
<rect x="436" y="687.937" width="105.999" height="12" transform="rotate(-11.5 436 687.937)" fill="white"/>
<rect x="102" y="504.394" width="22.5109" height="414.105" transform="rotate(-16.5 102 504.394)" fill="#010D34"/>
<rect x="79" y="221" width="316" height="42" fill="#010D34"/>
<rect x="79" y="306" width="464" height="27" fill="#010D34"/>
<rect x="79" y="367" width="380" height="27" fill="#010D34"/>
<rect x="79" y="437" width="149" height="26" fill="#010D34"/>
</svg>
