<svg width="891" height="1781" viewBox="0 0 891 1781" fill="none" xmlns="http://www.w3.org/2000/svg">
<circle cx="90" cy="91" r="90" fill="#010D34"/>
<circle cx="800" cy="1691" r="90" fill="#010D34"/>
<circle cx="90" cy="1691" r="90" fill="#010D34"/>
<circle cx="800" cy="91" r="90" fill="#010D34"/>
<rect y="177" width="891" height="1403" fill="white"/>
<line x1="0.5" y1="91" x2="0.5" y2="1691" stroke="black"/>
<line x1="90" y1="0.5" x2="800" y2="0.5" stroke="black"/>
<line x1="890.5" y1="91" x2="890.5" y2="1691" stroke="black"/>
<line x1="90" y1="1780.5" x2="800" y2="1780.5" stroke="black"/>
<rect x="90" y="1580" width="710" height="201" fill="#010D34"/>
<rect y="1580" width="217" height="111" fill="#010D34"/>
<rect x="729" y="1580" width="161" height="111" fill="#010D34"/>
<circle cx="445" cy="1681" r="67" fill="white"/>
<circle cx="445" cy="1681" r="56" fill="#010D34"/>
<rect x="90" y="1" width="710" height="176" fill="#010D34"/>
<rect y="91" width="158" height="86" fill="#010D34"/>
<rect x="724" y="91" width="167" height="86" fill="#010D34"/>
<rect x="347" y="83" width="196" height="16" fill="white"/>
<circle cx="692" cy="91" r="18" fill="white"/>
<rect x="855" y="156" width="35" height="1458" fill="#010D34"/>
<rect y="150" width="35" height="1458" fill="#010D34"/>
<rect y="1" width="405" height="1780" rx="80" fill="#010D34"/>
<rect x="37" y="34" width="417" height="1714" rx="52" fill="white"/>
<rect x="405" y="34" width="49" height="1714" fill="white"/>
<rect x="87" y="1" width="367" height="33" fill="#010D34"/>
<rect x="90" y="1748" width="364" height="33" fill="#010D34"/>
<rect x="153" y="101" width="292" height="107" fill="#010D34"/>
<rect x="197" y="1067" width="248" height="53" fill="#010D34"/>
<rect x="197" y="1140" width="165" height="37" fill="#010D34"/>
<rect x="453" y="1052" width="223" height="72" fill="#010D34"/>
<rect x="453" y="1170" width="223" height="72" fill="#010D34"/>
<rect x="84" y="1297" width="48" height="102" fill="#010D34"/>
<rect x="62" y="1477" width="293" height="155" rx="30" fill="#010D34"/>
<rect x="150" y="1446" width="39" height="37" fill="#010D34"/>
<rect x="189" y="1346" width="100" height="39" fill="#010D34"/>
<rect x="154" y="1401" width="135" height="39" fill="#010D34"/>
<rect x="343" y="1401" width="106" height="39" fill="#010D34"/>
<rect x="355" y="1499" width="94" height="37" fill="#010D34"/>
<rect x="210" y="43" width="235" height="39" fill="#010D34"/>
<rect x="205" y="222" width="240" height="37" fill="#010D34"/>
<path d="M222 1353.69C210.844 1353.69 196.999 1350.73 185.875 1352.65C179.907 1353.68 172.172 1358.46 167.458 1361.39C158.217 1367.13 154 1381.25 154 1390" stroke="#010D34" stroke-width="14" stroke-linecap="round" stroke-linejoin="round"/>
<path d="M190.747 1377.09C187.148 1377.18 181.039 1376.69 179.126 1380.13C177.71 1382.68 176.802 1386.28 176.802 1389.25" stroke="#010D34" stroke-width="14" stroke-linecap="round" stroke-linejoin="round"/>
<path d="M158.207 1407.84C155.875 1407.47 152.272 1406.91 149.983 1407.92C148.521 1408.57 146.405 1409.63 144.798 1409.63C142.663 1409.63 140.134 1410.93 137.825 1411.06C136.763 1411.12 135.617 1411.63 134.587 1411.96C133.662 1412.24 131.797 1412.85 130.852 1412.85C127.101 1412.85 122.236 1416.02 118.874 1417.7C116.216 1419.03 113.793 1420.79 111.086 1421.99C108.803 1423 107.224 1424.73 105.107 1425.9C103.149 1426.99 101.483 1428.26 99.743 1429.66C98.046 1431.01 97.6481 1433.4 96.2665 1434.94C94.8468 1436.52 94.0944 1439.11 92.9291 1440.94C91.4348 1443.29 90.7064 1445.9 89.8301 1448.53C86.7354 1457.81 87.0489 1467.86 87.0489 1477.57" stroke="#010D34" stroke-width="14" stroke-linecap="round" stroke-linejoin="round"/>
<path d="M157.134 1434.3C153.566 1434.3 150.171 1434.66 146.586 1434.66C143.452 1434.66 139.34 1434.38 136.574 1435.91C133.425 1437.66 129.794 1438.7 126.919 1440.94C124.431 1442.88 122.359 1445.34 120.84 1448.07C118.702 1451.92 114.94 1456.45 114.94 1461.12C114.94 1463.85 113.867 1466.79 113.867 1469.71C113.867 1472.25 113.51 1474.88 113.51 1477.57" stroke="#010D34" stroke-width="14" stroke-linecap="round" stroke-linejoin="round"/>
<path d="M346.651 1353.13C349.683 1354.29 352.893 1354.56 356.107 1354.56C359.226 1354.56 362.201 1353.85 365.245 1353.85C368.374 1353.85 371.164 1353.32 374.006 1352.06C375.808 1351.26 378.631 1349.47 379.628 1347.77C381.097 1345.27 381.337 1342.08 381.337 1339.19C381.337 1335.62 381.439 1332.03 381.337 1328.46C381.273 1326.23 380.979 1323.96 380.979 1321.67C380.979 1319.84 380.293 1316.61 381.158 1315.05C381.925 1313.67 381.067 1311.4 381.416 1309.87C381.834 1308.04 381.983 1305.73 382.052 1303.87C382.174 1300.57 382.921 1297.53 383.502 1294.33C383.963 1291.8 385.844 1289.17 385.985 1286.62C386.116 1284.27 388.357 1280.74 389.76 1278.94C392.226 1275.77 395.255 1272.89 398.5 1270.45C404.78 1265.74 411.53 1263.44 418.962 1261.32C420.5 1260.88 422.682 1261.24 424.266 1261.24C427.18 1261.24 430.093 1261.24 433.007 1261.24C435.775 1261.24 438.626 1261.95 441.41 1261.95" stroke="#010D34" stroke-width="14" stroke-linecap="round" stroke-linejoin="round"/>
<path d="M345.579 1376.73C353.658 1376.73 361.736 1376.73 369.815 1376.73C378.47 1376.73 387.393 1374.25 393.852 1368.15C398.957 1363.33 404.66 1357.13 404.937 1349.64C405.191 1342.79 406.01 1336.12 406.01 1329.18C406.01 1326.27 406.368 1322.97 406.368 1319.88C406.368 1316.33 406.159 1312.7 406.368 1309.15C406.695 1303.59 407.278 1296.96 411.453 1292.78C415.084 1289.15 421.242 1286.98 426.392 1286.98C431.91 1286.98 437.28 1286.62 442.841 1286.62" stroke="#010D34" stroke-width="14" stroke-linecap="round" stroke-linejoin="round"/>
<path d="M79.9551 1629.89C81.3297 1636.93 81.7984 1644.06 81.7984 1651.26C81.7984 1659.33 83.7898 1666.81 84.2562 1674.74C84.4788 1678.53 86.5161 1682.04 86.7139 1685.8C86.8694 1688.76 88.0981 1694.14 89.3082 1696.86C90.7234 1700.04 91.7167 1703.45 93.3362 1706.69C94.733 1709.49 97.2234 1711.72 98.6955 1714.37C101.177 1718.84 106.484 1724.78 110.984 1727.28C113.292 1728.56 116.427 1731.28 118.972 1731.85C121.766 1732.47 125.079 1734.8 127.881 1734.96C131.21 1735.14 134.364 1736.61 137.712 1736.8C140.693 1736.96 143.779 1737.41 146.929 1737.41C150.465 1737.41 153.97 1736.8 157.375 1736.8C158.909 1736.8 160.147 1736.27 161.676 1736.18C162.802 1736.12 165.964 1735.78 166.898 1735.26C169.497 1733.82 173.57 1734.83 176.115 1733.42C178.402 1732.15 182.11 1731.81 184.717 1731.24C190.168 1730.02 194.717 1726.35 200.078 1725.16C203.637 1724.37 206.95 1722.27 210.524 1721.47C212.229 1721.09 213.757 1720.55 215.439 1719.9C217.951 1718.94 221.101 1718.66 223.427 1717.41C226.158 1715.94 229.408 1715.42 232.336 1714.37C235.369 1713.29 239.018 1710.73 242.167 1710.38C244.311 1710.14 249.479 1708.11 250.906 1706.83C252.162 1705.7 254.365 1705.71 255.822 1704.85C257.919 1703.61 260.315 1702.93 262.58 1702.25C269.539 1700.19 276.278 1696.38 283.062 1694.44C289.001 1692.74 295.85 1689.49 302.075 1689.49C307.593 1689.49 312.704 1686.42 318.358 1686.42" stroke="#010D34" stroke-width="14" stroke-linecap="round" stroke-linejoin="round"/>
<path d="M317.743 1685.8C323.529 1685.8 329.169 1683.65 334.913 1682.69C339.845 1681.87 344.815 1680.27 350.001 1680.27C355.326 1680.27 360.652 1680.27 365.977 1680.27C368.537 1680.27 371.097 1680.27 373.657 1680.27C375.93 1680.27 378.615 1681.5 380.723 1681.5C386.125 1681.5 391.225 1682.44 396.392 1682.73C401.736 1683.03 407.163 1684.57 412.367 1684.57C418.009 1684.57 423.442 1686.7 428.957 1687.03C430.698 1687.13 433.505 1687.87 435.409 1688.29C437.549 1688.77 439.993 1689.17 441.86 1690.1" stroke="#010D34" stroke-width="14" stroke-linecap="round" stroke-linejoin="round"/>
<path d="M108.219 1628.04C108.219 1632.48 110.063 1635.96 110.063 1640.33C110.063 1643.92 110.063 1647.5 110.063 1651.08C110.063 1654.56 111.291 1657.88 111.291 1661.36C111.291 1665.76 111.553 1670.23 112.486 1674.43C114.017 1681.32 114.125 1688.05 117.299 1694.4C120.181 1700.17 124.61 1703.96 130.339 1706.83C133.468 1708.39 138.538 1709.15 142.013 1709.15C143.881 1709.15 145.386 1709.76 147.236 1709.76C149.052 1709.76 151.59 1709.3 153.346 1709.8C156.371 1710.66 160.806 1710.99 164.133 1710.99C165.874 1710.99 167.615 1710.99 169.356 1710.99C170.929 1710.99 172.206 1709.52 173.623 1709.11C176.659 1708.25 180.032 1706.12 182.874 1704.54C184.572 1703.6 186.439 1703.6 188.096 1702.87C189.454 1702.26 192.156 1701.32 193.626 1701.16C197.471 1700.73 201.638 1698.48 205.301 1697.17C209.615 1695.63 214.057 1693.95 218.204 1692.08C227.163 1688.05 236.514 1686.24 245.854 1683.65C250.624 1682.32 255.824 1679.42 260.737 1679.04C266.024 1678.63 272.999 1675.9 277.839 1673.78C281.626 1672.13 285.788 1670.13 289.786 1669.24C293.731 1668.37 297.764 1667.42 301.631 1666.27C306.095 1664.95 310.733 1664.22 315.32 1663.65C318.214 1663.28 320.828 1661.94 323.751 1661.84C325.509 1661.77 329.476 1661.18 330.783 1660.13C331.355 1659.67 335.651 1659.38 336.518 1659.38C338.587 1659.38 340.269 1658.76 342.321 1658.76C345.233 1658.76 348.073 1658.15 350.923 1658.15C353.125 1658.15 357.226 1658.95 359.218 1657.84C362.333 1656.11 369.677 1657.54 373.18 1657.54C377.998 1657.54 382.748 1658.15 387.482 1658.15C392.237 1658.15 396.616 1659.38 401.307 1659.38C403.019 1659.38 407.1 1659.43 408.681 1660.13C410.648 1661 412.805 1660.28 414.825 1661.09C417.072 1661.99 420.706 1661.43 423.154 1661.87C425.158 1662.24 427.367 1663.07 429.264 1663.07C433.187 1663.07 436.771 1664.29 440.632 1664.29" stroke="#010D34" stroke-width="14" stroke-linecap="round" stroke-linejoin="round"/>
<path d="M143.079 1708.56C144.328 1708.56 145.576 1708.56 146.825 1708.56C147.98 1708.56 149.149 1708.95 150.316 1708.98C151.889 1709.01 153.379 1709.18 154.952 1709.18C157.363 1709.18 159.632 1709 162.016 1708.78C164.216 1708.58 166.436 1708.3 168.629 1707.98C170.943 1707.65 173.064 1706.94 175.323 1706.37C177.192 1705.91 179.214 1705.69 181.115 1705.39C182.552 1705.16 183.958 1704.69 185.369 1704.35C186.132 1704.17 186.77 1703.63 187.566 1703.57C189.557 1703.41 191.299 1701.47 192.652 1700.28C193.412 1699.62 191.286 1701.82 190.41 1702.32C189.526 1702.82 188.302 1702.73 187.3 1702.73C185.976 1702.73 184.741 1703.08 183.45 1703.15C182.482 1703.2 181.699 1703.72 180.837 1703.97C180.179 1704.16 179.32 1704.57 178.664 1704.61C177.983 1704.65 177.257 1705.63 176.583 1705.85" stroke="#010D34" stroke-width="14" stroke-linecap="round" stroke-linejoin="round"/>
<path d="M114.278 1036.42C112.536 1045.34 113.775 1055.5 113.775 1064.58C113.775 1070.62 113.775 1076.66 113.775 1082.7C113.775 1090.55 112.77 1098.44 112.77 1106.31C112.77 1118.33 113.775 1130.04 113.775 1142.01C113.775 1153.4 113.775 1164.8 113.775 1176.2C113.775 1182.34 114.455 1188.3 115.312 1194.3C116.071 1199.62 116.818 1205.65 118.412 1210.78C119.963 1215.78 120.518 1220.98 122.071 1225.95C122.927 1228.69 123.483 1231.51 124.334 1234.27C125.235 1237.2 126.912 1239.4 128.245 1242.07C133.234 1252.05 141.403 1259.32 152.38 1262.57C158.281 1264.32 164.5 1264.67 170.313 1265.73C177.681 1267.07 185.658 1268.21 193.219 1268.21C200.937 1268.21 208.794 1268.72 216.6 1268.72C222.96 1268.72 229.057 1268 235.343 1267.71C238.767 1267.55 242.065 1266.7 245.511 1266.7C248.537 1266.7 251.563 1266.7 254.59 1266.7C261.827 1266.7 268.536 1268.33 275.68 1268.72C279.665 1268.93 284.673 1270.14 287.998 1271.98C291.719 1274.05 294.405 1277.48 297.915 1279.78C305.412 1284.68 310.055 1293.5 314.005 1301.4C316.565 1306.52 317.957 1311.51 319.675 1317.01C321.381 1322.47 324.149 1328.32 324.452 1334.08C324.548 1335.9 325.858 1337.77 325.961 1339.61C326.085 1341.85 326.966 1344.15 326.966 1346.37C326.966 1350.58 328.475 1354.88 328.475 1359.22C328.475 1367.91 330.486 1376.62 330.486 1385.37C330.486 1393.11 330.989 1400.89 330.989 1408.5" stroke="#010D34" stroke-width="14" stroke-linecap="round" stroke-linejoin="round"/>
<path d="M329.48 1411.01C329.48 1416.53 330.486 1421.57 330.486 1427.1C330.486 1432.59 330.486 1438.09 330.486 1443.58C330.486 1455.85 330.486 1468.13 330.486 1480.4" stroke="#010D34" stroke-width="14" stroke-linecap="round" stroke-linejoin="round"/>
<path d="M329.983 1403.47C329.983 1409.44 330.989 1414.94 330.989 1421.07C330.989 1426.43 330.486 1431.44 330.486 1436.65" stroke="#010D34" stroke-width="14" stroke-linecap="round" stroke-linejoin="round"/>
<path d="M88.4131 1036.19C88.4131 1042.15 89.5702 1047.76 89.5702 1053.84C89.5702 1059.14 89.5702 1064.44 89.5702 1069.75C89.5702 1081.51 89.5702 1093.28 89.5702 1105.04C89.5702 1116.13 88.9917 1126.9 88.9917 1138.02C88.9917 1151.48 89.5702 1165.04 89.5702 1178.39C89.5702 1181.16 90.1488 1183.64 90.1488 1186.33C90.1488 1188.92 90.1933 1192.46 90.7595 1195.01C91.3111 1197.49 91.8845 1200.24 91.8845 1202.82C91.8845 1205.55 93.0417 1208.06 93.0417 1210.92C93.0417 1217.03 96.5131 1223.11 96.5131 1229.14C96.5131 1231.14 98.0434 1234.55 98.9559 1236.38C100.176 1238.82 100.633 1241.47 101.849 1243.9C103.169 1246.54 104.608 1249.09 105.77 1251.71C106.533 1253.43 108.174 1257.28 109.531 1258.36C111.603 1260.02 112.663 1263.63 114.449 1265.63C115.895 1267.24 117.847 1269.58 119.656 1270.64C121.855 1271.93 123.727 1273.84 125.731 1275.4C127.984 1277.15 131.247 1278.05 133.252 1280.06C135.039 1281.85 137.859 1282.49 139.906 1283.95C140.948 1284.69 142.712 1286 143.956 1286.13C146.988 1286.47 151.039 1287.1 153.792 1288.32C156.02 1289.31 159.752 1289.03 162.181 1289.57C166.457 1290.52 171.672 1290.93 176.067 1291.31C184.371 1292.03 192.797 1291.92 201.234 1291.92C217.781 1291.92 234.041 1287.87 250.542 1287.87C255.945 1287.87 263.241 1287.45 268.027 1290.18C270.084 1291.36 272.494 1292.42 274.713 1293.53C277.126 1294.73 278.883 1296.86 281.077 1298.16C283.241 1299.43 285.366 1301.42 287.152 1303.2C288.928 1304.98 289.874 1307.75 291.781 1309.28C292.774 1310.07 294.814 1314.3 294.963 1315.64C295.322 1318.87 298.434 1321.53 298.434 1324.9C298.434 1327.33 300.121 1330.52 300.749 1333.03C302.332 1339.36 303.389 1345.75 304.799 1352.09C305.999 1357.49 307.113 1363.55 307.113 1368.87C307.113 1379.98 307.692 1390.82 307.692 1401.85C307.692 1408.14 307.61 1414.53 306.502 1420.62C305.949 1423.66 304.968 1427.14 304.799 1430.2C304.588 1433.98 304.933 1438.09 304.092 1441.77C302.645 1448.1 303.642 1455.51 303.642 1462.02C303.642 1467.95 302.484 1474.17 302.484 1479.96" stroke="#010D34" stroke-width="14" stroke-linecap="round" stroke-linejoin="round"/>
<path d="M164.784 1035.61C164.784 1053.14 165.363 1070.43 165.363 1087.97C165.363 1098.38 165.941 1108.99 165.941 1119.22C165.941 1124.34 166.52 1129.53 166.52 1134.55C166.52 1140.77 167.677 1146.79 167.677 1152.93C167.677 1157.34 169.218 1162.26 170.023 1166.69C170.923 1171.64 172.546 1177.01 174.748 1181.41C176.5 1184.92 176.982 1189.14 178.959 1192.7C180.33 1195.16 181.997 1200.51 184.166 1202.24C187.21 1204.68 189.054 1209.41 191.848 1212.21C194.377 1214.73 197.904 1218.18 201.523 1218.99C203.22 1219.37 205.098 1220.76 206.731 1220.76C208.048 1220.76 211.418 1221.61 212.356 1222.36C213.581 1223.34 217.376 1222.19 218.881 1222.52C220.753 1222.94 223.053 1223.54 224.956 1223.65C230.276 1223.94 235.539 1224.23 240.866 1224.23C245.711 1224.23 250.374 1223.07 255.041 1223.07C259.579 1223.07 263.879 1220.85 268.348 1220.21C274.401 1219.34 280.173 1217.43 286.252 1216.67C295.383 1215.53 303.776 1211.12 312.609 1209.15C316.986 1208.18 321.67 1205.97 326.206 1205.71C331.65 1205.41 337.05 1202.54 342.406 1202.24C344.636 1202.12 346.718 1201.17 348.898 1201.08C351.432 1200.99 355.406 1200.68 357.705 1199.64C359.684 1198.74 362.555 1198.7 364.68 1198.22C366.678 1197.78 369.491 1198.3 371.334 1197.48C374.768 1195.96 378.916 1196.67 382.616 1195.85C386.591 1194.96 390.79 1195.06 394.766 1194.17C398.342 1193.38 402.954 1194.14 406.627 1194.14C410.58 1194.14 414.534 1194.14 418.488 1194.14C422.356 1194.14 426.388 1194.5 430.348 1194.72C434.256 1194.94 438.171 1196.46 441.92 1196.46" stroke="#010D34" stroke-width="14" stroke-linecap="round" stroke-linejoin="round"/>
<path d="M141.062 1033.88C141.062 1043.44 142.22 1052.35 142.22 1061.94C142.22 1070.81 142.22 1079.68 142.22 1088.55C142.22 1097.81 142.22 1107.07 142.22 1116.32C142.22 1119.02 142.22 1121.72 142.22 1124.42C142.22 1126.06 142.314 1130.55 143.087 1131.94C143.839 1133.3 143.955 1136.75 143.955 1138.31C143.955 1140.41 144.534 1141.94 144.534 1144.09C144.534 1148.31 146.27 1152.66 146.27 1156.82C146.27 1161.27 147.589 1166.37 148.552 1170.71C150.679 1180.28 151.565 1190.37 156.395 1199.06C158.417 1202.7 159.525 1206.89 161.602 1210.63C163.652 1214.32 165.905 1217.69 168.512 1221.04C169.837 1222.75 170.905 1225.48 172.595 1226.8C173.746 1227.69 176.094 1229.25 176.934 1230.3C177.726 1231.29 180.68 1232.8 181.884 1233.48C183.81 1234.58 185.717 1235.6 187.637 1236.67C190.477 1238.24 194.993 1241.98 198.341 1242.16C202.756 1242.41 207.138 1245.06 211.648 1245.06C217.816 1245.06 224.05 1247.37 230.162 1247.37C232.929 1247.37 235.426 1247.95 238.262 1247.95C240.989 1247.95 243.675 1247.37 246.491 1247.37C251.505 1247.37 256.52 1247.37 261.534 1247.37C267.092 1247.37 272.259 1245.25 277.734 1245.06C291.056 1244.58 303.938 1239.98 316.948 1237.08C323.255 1235.68 330.634 1234.41 336.62 1231.75C340.775 1229.9 345.173 1229.68 349.348 1227.83C353.212 1226.11 358.06 1226.46 362.077 1224.68C366.214 1222.84 372.019 1221.33 376.541 1221.33C381.305 1221.33 386.268 1220.18 391.005 1220.18C396.405 1220.18 401.805 1220.18 407.205 1220.18C414.256 1220.18 421.013 1221.91 428.034 1221.91C432.42 1221.91 437.774 1222.84 441.919 1224.23" stroke="#010D34" stroke-width="14" stroke-linecap="round" stroke-linejoin="round"/>
<path d="M211.133 52.083C207.46 53.5166 203.851 53.8861 200.148 54.709C197.281 55.3461 193.381 55.9172 190.495 56.0775C187.989 56.2167 183.707 56.7253 181.47 57.7419C178.787 58.9619 175.249 58.0455 172.52 59.2583C169.183 60.7414 164.769 60.6101 161.165 61.7364C158.73 62.4973 153.944 62.6832 152.03 64.2144C149.383 66.3313 143.199 67.7835 139.898 68.7267C136.753 69.6253 134.412 71.4785 131.576 73.0541C127.118 75.5312 123.261 78.2549 118.964 80.7102C114.488 83.2681 111.851 88.7783 108.46 92.5457C104.627 96.8041 100.315 100.83 97.4382 106.009C94.9063 110.566 89.8333 115.764 88.6725 120.988C87.9823 124.094 86.1083 127.709 84.7889 130.641C83.4843 133.54 83.5805 136.873 82.3109 139.666C81.2186 142.069 80.7871 146.085 80.6465 148.617C80.4982 151.286 79.8484 154.372 79.278 156.938C77.9687 162.83 75.9863 169.505 75.9863 175.579C75.9863 178.302 74.804 181.215 74.6548 183.901C74.5 186.687 75.2756 189.994 74.137 192.556C73.2163 194.628 73.989 198.607 73.989 200.878C73.989 204.367 73.989 207.856 73.989 211.345C73.989 219.318 74.6548 227.279 74.6548 235.164C74.6548 251.103 77.3178 267.099 77.3178 283.098" stroke="#010D34" stroke-width="14" stroke-linecap="round" stroke-linejoin="round"/>
<path d="M211.133 74.7178C204.82 74.8718 198.245 77.3808 192.159 77.3808C189.376 77.3808 186.817 78.0871 184.17 78.6753C181.446 79.2808 178.436 78.746 175.849 79.8958C173.426 80.9727 170.858 80.7269 168.525 81.8931C166.134 83.0889 163.953 83.6295 161.535 84.704C156.616 86.8905 152.491 89.4417 147.887 91.8793C143.592 94.1532 139.049 97.5367 135.571 101.015C131.15 105.436 125.45 110.578 122.441 115.994C119.883 120.598 114.465 125.756 113.305 130.974C112.142 136.206 108.3 140.822 107.313 146.249C106.307 151.784 102.835 157.066 102.616 162.745C102.507 165.597 101.452 167.738 101.285 170.586C101.174 172.474 100.632 177.087 99.6204 178.907C98.6264 180.697 98.6218 184.863 98.6218 186.933C98.6218 188.991 98.3017 193.276 97.4382 195.218C96.462 197.415 97.2903 201.472 97.2903 203.873C97.2903 206.647 97.2903 209.421 97.2903 212.195C97.2903 218.842 96.6245 225.224 96.6245 231.835C96.6245 238.495 97.2903 244.896 97.2903 251.437C97.2903 257.432 98.6218 262.949 98.6218 269.116C98.6218 274.789 99.9533 280.689 99.9533 286.426" stroke="#010D34" stroke-width="14" stroke-linecap="round" stroke-linejoin="round"/>
<path d="M207.805 228.506C204.58 229.135 201.703 228.982 198.484 229.172C197.33 229.239 193.675 229.46 192.493 229.985C188.757 231.646 182.316 231.835 178.179 231.835C174.181 231.835 170.161 233.832 166.196 233.832C161.501 233.832 156.934 237.976 152.548 238.492C148.676 238.948 143.95 244.082 140.564 245.963C137.012 247.937 133.823 252.748 131.909 256.097C129.893 259.627 127.421 262.852 126.546 266.786C125.523 271.392 125.252 275.564 125.252 280.434" stroke="#010D34" stroke-width="14" stroke-linecap="round" stroke-linejoin="round"/>
<path d="M205.807 251.142C199.742 252.325 193.202 254.47 187.166 254.47C180.649 254.47 174.614 258.465 168.192 258.465C164.258 258.465 156.248 263.16 153.879 266.121C151.144 269.539 146.749 278.867 152.547 281.766" stroke="#010D34" stroke-width="14" stroke-linecap="round" stroke-linejoin="round"/>
<path d="M213.797 63.4004C206.94 64.7382 200.008 66.0634 193.01 66.0634C186.169 66.0634 177.873 67.2331 171.337 69.2442C159.365 72.9278 147.812 77.4556 136.57 83.077C131.271 85.7263 125.708 90.9057 121.59 95.0235C117.193 99.4213 115.202 105.324 111.123 109.855C108.107 113.206 104.093 118.946 102.469 123.17C101.564 125.523 99.4953 127.678 98.4741 129.975C97.3498 132.505 95.9213 134.972 95.3303 137.631C94.3876 141.873 94.3572 147.905 92.2974 151.612C91.5661 152.928 91.3774 155.112 91.2988 156.605C91.219 158.122 89.9673 159.249 89.9673 160.896C89.9673 163.434 87.9014 166.401 87.3413 168.922C84.9438 179.711 84.6413 192.818 84.6413 203.873C84.6413 210.05 83.9756 215.921 83.9756 221.997C83.9756 230.179 84.9316 237.818 85.9358 245.853C86.6477 251.548 87.3043 257.134 87.3043 262.792C87.3043 268.737 89.3016 274.641 89.3016 280.435" stroke="#010D34" stroke-width="14" stroke-linecap="round" stroke-linejoin="round"/>
<path d="M111.271 116.66C110.424 120.518 108.873 123.822 107.128 127.312C105.882 129.804 103.592 133.173 103.282 135.967C102.971 138.759 100.469 142.785 99.2872 145.287C96.603 150.972 93.1018 156.471 91.4461 162.597C88.3683 173.985 87.3037 186.106 87.3037 197.882" stroke="#010D34" stroke-width="14" stroke-linecap="round" stroke-linejoin="round"/>
<path d="M209.136 240.489C200.656 242.144 191.812 244.004 183.172 244.484C175.277 244.922 167.631 248.022 159.87 248.478C156.206 248.694 151.594 250.763 148.886 253.471C147.506 254.85 146.017 255.825 144.706 257.281C143.212 258.941 142.548 261.348 141.081 262.977C138.618 265.714 137.382 269.952 136.606 273.444C136.119 275.635 135.941 282.783 137.901 283.763" stroke="#010D34" stroke-width="14" stroke-linecap="round" stroke-linejoin="round"/>
<path d="M152.548 1033.4C152.548 1052.52 151.882 1071.63 151.882 1090.65C151.882 1094.76 151.882 1098.86 151.882 1102.97C151.882 1106.81 153.213 1110.6 153.213 1114.32C153.213 1123.28 155.876 1132.17 155.876 1141.1C155.876 1149.5 157.675 1158.63 159.168 1166.84C160.578 1174.59 161.257 1183.09 164.383 1190.51C165.588 1193.37 166.446 1196.81 167.527 1199.83C169.135 1204.34 171.251 1208.66 172.853 1213.15C174.095 1216.63 176.641 1220.46 179.178 1223.13C180.99 1225.05 183.998 1226.78 185.169 1229.13" stroke="#010D34" stroke-width="14" stroke-linecap="round" stroke-linejoin="round"/>
<path d="M173.852 1207.82C175.912 1213.1 178.807 1218.1 182.839 1222.14C186.079 1225.38 190.02 1227.48 193.158 1230.46C196.714 1233.83 202.135 1235.12 206.843 1235.12C212.071 1235.12 217.116 1237 222.303 1237.12C230.015 1237.29 237.743 1239.78 245.42 1239.78C252.342 1239.78 259.091 1238.59 265.873 1237.26C271.789 1236.11 278.954 1235.87 284.403 1233.49C287.986 1231.92 292.696 1231.78 296.497 1230.46C300.356 1229.12 304.958 1227.26 308.962 1226.46C313.83 1225.49 318.065 1223.18 322.979 1221.95C328.48 1220.58 335.165 1219.7 340.326 1217.44C345.05 1215.37 349.803 1214.8 354.787 1213.67C360.225 1212.43 365.642 1210.49 371.246 1210.49C377.942 1210.49 384.741 1209.15 391.551 1209.15C396.212 1209.15 400.872 1209.15 405.532 1209.15C416.799 1209.15 427.758 1211.82 438.82 1211.82" stroke="#010D34" stroke-width="14" stroke-linecap="round" stroke-linejoin="round"/>
<path d="M190.495 1219.81C199.468 1228.78 214.206 1226.8 226.113 1227.83C236.543 1228.74 247.844 1230.57 258.402 1228.98C271.572 1226.99 284.497 1225.12 297.385 1221.51C307.72 1218.61 318.323 1217.04 328.453 1213.67C339.398 1210.02 350.963 1208.06 362.258 1205.49C372.424 1203.18 383.304 1201.17 393.696 1201.17C402.717 1201.17 412.004 1201.83 420.844 1201.83C427.027 1201.83 432.003 1203.83 438.154 1203.83" stroke="#010D34" stroke-width="14" stroke-linecap="round" stroke-linejoin="round"/>
<path d="M101.285 1034.73C101.285 1041.68 103.026 1048.31 103.282 1055.22C103.479 1060.53 103.282 1065.88 103.282 1071.2C103.282 1083.88 101.95 1096.03 101.95 1108.63C101.95 1132.88 103.282 1156.65 103.282 1180.86C103.282 1186.52 103.948 1191.8 103.948 1197.5C103.948 1202.69 105.945 1207.93 105.945 1212.82C105.945 1215.1 107.477 1217.88 107.979 1220.14C108.631 1223.07 109.493 1227.52 110.938 1230.13C112.295 1232.57 112.738 1236.09 113.934 1238.78C114.653 1240.4 116.36 1244.12 117.596 1245.1C119.288 1246.46 120.54 1250.21 121.59 1252.1C122.776 1254.23 124.714 1256.02 125.917 1258.12C126.965 1259.96 128.598 1262.09 130.245 1263.38C131.806 1264.59 134.662 1265.86 135.904 1267.41C138.554 1270.72 145.776 1271.08 149.588 1271.77C155.941 1272.93 162.508 1275.06 169.043 1275.06C175.79 1275.06 182.648 1277.73 189.311 1277.73C198.12 1277.73 206.911 1278.39 215.793 1278.39C223.731 1278.39 231.749 1279.06 239.76 1279.06C247.713 1279.06 255.791 1278.62 263.727 1279.06C268.849 1279.34 273.989 1282.11 279.04 1282.39C284.266 1282.68 290.161 1286.85 293.686 1290.38C300.155 1296.84 309.059 1307.06 311.624 1316.04C313.537 1322.74 313.766 1330.34 315.027 1337.27C316.323 1344.4 316.873 1352.77 319.317 1359.61C321.038 1364.43 320.982 1370.14 320.982 1375.3C320.982 1379.1 321.648 1382.88 321.648 1386.58C321.648 1388.85 321.191 1391.68 321.685 1393.9C324.088 1404.72 322.313 1417.65 322.313 1428.85C322.313 1446.18 322.979 1463.62 322.979 1480.78" stroke="#010D34" stroke-width="14" stroke-linecap="round" stroke-linejoin="round"/>
<path d="M136.569 1269.74C140.004 1274.13 145.619 1276.87 150.55 1279.21C156.993 1282.26 166.181 1281.72 173.149 1281.72C179.007 1281.72 184.88 1283.05 190.865 1283.05C194.525 1283.05 197.685 1282.39 201.147 1282.39" stroke="#010D34" stroke-width="14" stroke-linecap="round" stroke-linejoin="round"/>
<path d="M297.681 1303.69C299.649 1312.66 308.333 1319.7 308.333 1328.99" stroke="#010D34" stroke-width="14" stroke-linecap="round" stroke-linejoin="round"/>
<path d="M314.324 1370.27C316.089 1381.07 315.656 1391.94 315.656 1402.92C315.656 1414.18 316.322 1425.38 316.322 1436.69C316.322 1444.67 314.324 1452.02 314.324 1459.81C314.324 1466.87 313.659 1474.1 313.659 1481.45" stroke="#010D34" stroke-width="14" stroke-linecap="round" stroke-linejoin="round"/>
<path d="M346.28 1364.94C350.347 1365.73 355.48 1366.11 359.447 1366.27C364.321 1366.47 369.673 1366.24 374.242 1364.61C378.288 1363.16 384.263 1363.28 387.409 1360.13C389.891 1357.65 390.406 1354.67 392.513 1351.96C394.533 1349.36 394.214 1343.84 394.214 1340.64C394.214 1336.93 394.214 1333.22 394.214 1329.51C394.214 1320.67 392.883 1312.08 392.883 1303.17C392.883 1294.58 398.033 1284.07 404.57 1278.73C407.88 1276.02 413.905 1275.22 418.033 1275.06C422.63 1274.89 427.08 1273.73 431.829 1273.73C435.24 1273.73 438.538 1272.4 441.815 1272.4C443.162 1272.4 443.373 1275.68 442.481 1276.39C441.152 1277.46 437.284 1277.63 435.491 1277.73C428.285 1278.13 418.376 1278.82 411.857 1281.72C408.264 1283.32 406.218 1286.7 402.869 1288.38" stroke="#010D34" stroke-width="14" stroke-linecap="round" stroke-linejoin="round"/>
<path d="M201.813 1364.27C198.928 1364.27 196.043 1364.27 193.158 1364.27C191.041 1364.27 189 1365.6 186.834 1365.6C183.571 1365.6 178.262 1366.84 176.515 1369.9C174.309 1373.76 168.827 1373.5 168.526 1378.92C168.341 1382.25 167.998 1386.63 166.528 1389.57" stroke="#010D34" stroke-width="14" stroke-linecap="round" stroke-linejoin="round"/>
<path d="M157.874 1421.53C154.793 1421.53 151.635 1421.36 148.553 1421.53C146.764 1421.63 145.067 1422.86 143.227 1422.86C139.679 1422.86 135.386 1424.11 132.242 1425.86C128.222 1428.09 123.316 1428.41 119.26 1430.33C116.144 1431.81 113.671 1434.77 111.937 1437.8C108.983 1442.97 101.951 1447.45 101.951 1454.15C101.951 1462.13 100.619 1470.1 100.619 1478.12" stroke="#010D34" stroke-width="14" stroke-linecap="round" stroke-linejoin="round"/>
<path d="M108.608 1431.51C104.55 1433.2 98.1191 1439.52 103.615 1443.79C106.455 1446 108.307 1449.27 109.236 1452.52C109.948 1455.01 101.474 1456.78 99.4351 1457.63C96.1022 1459.02 94.627 1462.11 94.627 1465.47" stroke="#010D34" stroke-width="14" stroke-linecap="round" stroke-linejoin="round"/>
<path d="M93.2959 1628.58C93.2959 1636.22 93.9616 1644.1 93.9616 1651.54C93.9616 1659.63 95.9589 1667.45 95.9589 1675.51C95.9589 1682.36 98.1709 1689.4 100.952 1695.52C103.724 1701.62 107.659 1705.99 111.308 1711.46C115.236 1717.35 124.913 1722.71 131.909 1723.11C135.924 1723.34 140.228 1724.46 144.226 1725.07C148.14 1725.67 152.556 1725.11 156.542 1725.11C174.534 1725.11 192.026 1718.49 208.988 1713.27C218.51 1710.34 227.818 1706.1 237.431 1703.14C241.934 1701.75 246.783 1700.79 251.226 1699.15C256.631 1697.15 263.346 1695.16 269.017 1694.45C271.577 1694.13 274.826 1692.84 277.412 1692.12C280.109 1691.36 283.161 1690.8 285.697 1689.68C290.429 1687.57 295.507 1686.01 300.344 1684.13C304.116 1682.66 306.961 1681.63 310.996 1680.65C315.537 1679.55 321.818 1679.42 326.012 1677.51C329.131 1676.09 334.888 1675.84 338.292 1675.84C343.58 1675.84 348.939 1674.79 354.269 1674.51C364.665 1673.97 375.723 1672.52 386.225 1672.52C394.87 1672.52 403.585 1675.39 412.19 1675.84C417.093 1676.1 422.172 1677.41 427.132 1677.88C430.639 1678.21 434.837 1678.73 438.154 1679.84" stroke="#010D34" stroke-width="14" stroke-linecap="round" stroke-linejoin="round"/>
<path d="M100.619 1629.91C101.865 1637.54 100.172 1646.32 102.949 1653.54C105.709 1660.72 104.669 1669.19 106.944 1676.47C109.171 1683.6 108.318 1690.87 111.789 1697.81C115.042 1704.32 124.929 1709.54 131.761 1711.65C138.282 1713.65 145.651 1714.1 152.548 1715.09C157.664 1715.82 163.358 1715.12 168.526 1715.12C174.352 1715.12 179.885 1714.68 185.465 1713.09C191.414 1711.39 196.708 1705.49 203.144 1705.14C207.766 1704.88 213.248 1702.86 217.791 1701.66C221.759 1700.61 226.072 1699.05 229.774 1697.3C236.719 1694.01 245.144 1692.75 252.41 1690.16C261.535 1686.9 271.836 1686.18 280.667 1682.17C289.15 1678.31 298.469 1676.08 307.001 1672.66C311.8 1670.74 317.758 1670.08 322.831 1669.04C326.56 1668.28 330.544 1666.63 334.297 1666.52C337.625 1666.43 340.563 1665.19 343.95 1665.19C349.079 1665.19 354.504 1665.72 359.595 1665.15C369.653 1664.04 380.013 1664.53 390.183 1664.53C400.08 1664.53 409.677 1667.34 419.513 1667.85C422.624 1668.02 425.683 1669.19 428.833 1669.19C432.205 1669.19 435.91 1669.06 438.82 1670.52" stroke="#010D34" stroke-width="14" stroke-linecap="round" stroke-linejoin="round"/>
<rect x="338" y="1346" width="13" height="37" fill="#010D34"/>
<rect x="441" y="1255" width="10" height="39" fill="#010D34"/>
<rect x="395" y="1292" width="8" height="13" fill="#010D34"/>
<rect x="439" y="1189" width="10" height="43" fill="#010D34"/>
<rect x="147" y="1390" width="37" height="7" fill="#010D34"/>
<rect x="439" y="1659" width="10" height="38" fill="#010D34"/>
<ellipse cx="460" cy="611.5" rx="66" ry="83.5" fill="#010D34"/>
<rect x="434" y="501" width="19" height="484" fill="white"/>
<rect x="51" y="281" width="394" height="758" rx="28" fill="#010D34"/>
<path d="M455.588 755.4C461.13 756.178 466.038 755.701 471.142 755.4C475.49 755.145 479.21 753.568 483.515 752.612C485.377 752.198 487.033 749.967 488.818 749.744C489.937 749.604 493.406 748.195 494.317 747.466C495.09 746.848 497.393 745.83 498.402 745.541C499.982 745.09 501.236 743.822 502.644 743.42C507.622 741.998 511.08 756.185 513.407 759.093C514.363 760.288 515.14 763.407 515.685 764.906C516.484 767.105 517.562 769.168 518.513 771.308C519.798 774.2 522.417 778.687 522.755 781.56C523.121 784.671 525.727 789.469 527.154 792.166C528.83 795.331 530.188 799.652 532.339 802.417C535.075 805.935 535.327 810.794 537.603 814.633C540.386 819.33 542.748 826.808 543.926 832.112C545.88 840.902 550.517 849.398 552.489 858.272C554.386 866.807 557.867 875.434 560.581 884.118C565.49 899.826 571.54 915.026 571.54 931.449C571.54 935.455 571.54 939.462 571.54 943.468C571.54 947.425 572.954 951.257 572.954 955.134C572.954 962.087 559.494 963.516 554.218 966.447C550.772 968.361 545.798 967.275 542.198 969.275C537.76 971.741 531.5 969.905 526.997 971.906C525.006 972.791 523.034 971.922 521.027 972.496C519.298 972.99 517.331 973.87 515.331 973.87C510.865 973.87 506.86 975.991 502.251 975.991C494.58 975.991 487.329 979.527 479.627 979.527C472.211 979.527 463.14 982.949 456.295 979.527" stroke="#010D34" stroke-width="14" stroke-linecap="round" stroke-linejoin="round"/>
<rect x="453" y="757" width="61" height="218" fill="#010D34"/>
<rect x="484" y="751" width="26" height="15" fill="#010D34"/>
<rect x="510" y="776" width="17" height="199" fill="#010D34"/>
<rect x="519" y="805" width="21" height="163" fill="#010D34"/>
<rect x="530" y="843" width="23" height="125" fill="#010D34"/>
<rect x="546" y="876" width="14" height="89" fill="#010D34"/>
<rect x="553" y="902" width="17" height="60" fill="#010D34"/>
<rect x="445" y="731" width="8" height="261" fill="white"/>
</svg>
